/* XPM */
static char *ec11ebc0cb4a4123ec3b87623caec0d8XmHIkQP01BjkixJW[] = {
/* columns rows colors chars-per-pixel */
"50 50 182 2 ",
"   c #000000",
".  c #070A07",
"X  c #070709",
"o  c #060A0A",
"O  c #0B0C0C",
"+  c #0D110D",
"@  c #11100E",
"#  c #120E12",
"$  c #0E1112",
"%  c #131313",
"&  c #191414",
"*  c #171816",
"=  c #151618",
"-  c #1C1418",
";  c #171919",
":  c #1C1C1C",
">  c #241513",
",  c #221817",
"<  c #281718",
"1  c #231C1C",
"2  c #2B1C1D",
"3  c #3A1917",
"4  c #341C1C",
"5  c #3B1B1C",
"6  c #1E201F",
"7  c #24201E",
"8  c #2B211E",
"9  c #30201C",
"0  c #221E20",
"q  c #2A1F21",
"w  c #341E20",
"e  c #3B1C20",
"r  c #1F2122",
"t  c #242221",
"y  c #2B2222",
"u  c #2A2929",
"i  c #382020",
"p  c #34272A",
"a  c #342A2B",
"s  c #382D2E",
"d  c #373939",
"f  c #461917",
"g  c #441B1C",
"h  c #4C1A1B",
"j  c #5E1513",
"k  c #541619",
"l  c #5B1619",
"z  c #53191B",
"x  c #5B191C",
"c  c #7E0D17",
"v  c #6C1316",
"b  c #63161A",
"n  c #6C1519",
"m  c #64191B",
"M  c #6B1A1D",
"N  c #751316",
"B  c #7B1116",
"V  c #75151B",
"C  c #7C1419",
"Z  c #73191D",
"A  c #7C191D",
"S  c #411920",
"D  c #4C1E21",
"F  c #541C20",
"G  c #5A1C21",
"H  c #631B21",
"J  c #6A1B21",
"K  c #741B20",
"L  c #781A21",
"P  c #432C2B",
"I  c #48292D",
"U  c #5C2528",
"Y  c #403839",
"T  c #6E2123",
"R  c #682529",
"E  c #702022",
"W  c #7B252A",
"Q  c #3F4141",
"!  c #464646",
"~  c #4B4747",
"^  c #4E524F",
"/  c #5D5757",
"(  c #61494A",
")  c #625858",
"_  c #666565",
"`  c #676B6B",
"'  c #696A6A",
"]  c #7C7C7B",
"[  c #8C0D15",
"{  c #950C13",
"}  c #9C0D14",
"|  c #980E19",
" . c #841215",
".. c #8B1014",
"X. c #83141A",
"o. c #8B141A",
"O. c #83191E",
"+. c #8D191D",
"@. c #9C1216",
"#. c #93151C",
"$. c #9B141B",
"%. c #93181E",
"&. c #9A181D",
"*. c #A50B0E",
"=. c #A40B12",
"-. c #AB0C14",
";. c #B40D15",
":. c #B90E14",
">. c #B10D18",
",. c #BA0E19",
"<. c #A41016",
"1. c #AC1116",
"2. c #A3141B",
"3. c #AB131B",
"4. c #A3181D",
"5. c #AA181F",
"6. c #B31216",
"7. c #BE1216",
"8. c #B4131B",
"9. c #BB151C",
"0. c #B51A1F",
"q. c #821B21",
"w. c #971521",
"e. c #9A1720",
"r. c #941A21",
"t. c #A71320",
"y. c #AE1720",
"u. c #A41A21",
"i. c #A91A21",
"p. c #B21720",
"a. c #BE1621",
"s. c #B21A22",
"d. c #C00E15",
"f. c #CD0E17",
"g. c #C20E19",
"h. c #D70E1B",
"j. c #D90E1D",
"k. c #C51013",
"l. c #CE1013",
"z. c #C4131C",
"x. c #CC121C",
"c. c #CA151E",
"v. c #C8181F",
"b. c #D91117",
"n. c #D6121A",
"m. c #D6111E",
"M. c #D9111A",
"N. c #D9101C",
"B. c #D9101D",
"V. c #CC1521",
"C. c #C91921",
"Z. c #D51821",
"A. c #DE1821",
"S. c #E41721",
"D. c #EA1621",
"F. c #E81820",
"G. c #F31520",
"H. c #F91423",
"J. c #7F8382",
"K. c #818382",
"L. c #838789",
"P. c #888889",
"I. c #8D908F",
"U. c #8E8F92",
"Y. c #939393",
"T. c #979598",
"R. c #969A9A",
"E. c #9A9C9C",
"W. c #A7A7A7",
"Q. c #A5AAAA",
"!. c #ACADAE",
"~. c #AFB0AF",
"^. c #B6B5B5",
"/. c #BDBDBC",
"(. c #C4C4C4",
"). c #CACACA",
"_. c #D4D5D4",
"`. c #DADADA",
"'. c #E3E4E3",
"]. c #E7E9E7",
"[. c #E8E8E7",
"{. c #EAEAEA",
/* pixels */
"                                                                    O : %                           ",
"                                                                  % t 2 t .                         ",
"                        % O                     = O             % 1 J w.z O                         ",
"                      O 7 t :                 X q t #         # 8 A c.k.n .                         ",
"                      % x l y 6               O G M 1 X     O t L i.O.<.v %                         ",
"                      & V | N 4 :       % r 6 6 M C.m :     7 M &.h 2 B n O                         ",
"                      - 4 N =. .5 ;     2 M J g m m.p.e % : F r.g x K N n O                         ",
"                      % q D 3.=.o.g ; X 5 C.n.a.y.n.n.r.t 9 r.h m x.#.v m +                         ",
"                      O J J r.#.v X.5 t y 5.M.B.m.m.B.y.5 +.M x c.D.+.N m $                         ",
"                      $ K 4.x y.n } N 7 w #.B.j.m.m.h.#.+.&.g 0.G.H.q.c x $                         ",
"                      O K V.x i.c.;.[ x 5.z.n.n.n.j.n.9.n.%.h V.H.G.M ..x X                         ",
"                      . m S.O.O.n.g.>.c.M.n.n.j.h.m.m.m.m.0.g %.H.S.x { h o                         ",
"                        F F.9.m x.h.n.n.n.B.B.m.j.m.B.n.n.n.A h A.Z.l } g X                         ",
"                        e A.B.H r.x.n.h.h.B.h.m.n.n.m.M.m.B.9.g u.s.b } g                           ",
"                        < C.G.A z x.h.h.m.M.n.h.h.B.m.m.j.m.n.C z q.v { 4                           ",
"                        & s.G.O.M M.m.m.m.h.B.m.m.h.m.h.m.n.n.1.g D  .[ q                           ",
"                        O %.F.x %.M.B.m.m.h.n.n.j.m.h.n.j.j.B.z.l 2 }  .,                           ",
"                        . T v.z 9.B.B.n.h.m.j.m.m.h.m.B.m.n.n.h. .k =.N :                           ",
"                O 0 %     g +.b n.j.m.n.n.j.h.m.n.h.n.n.m.h.m.h.-...=.m 6     % t %                 ",
"              $ t 4 q :   < U q.M.n.m.j.m.j.n.m.j.m.M.M.m.m.h.m.3.*.=.G ;   % 8 4 y :               ",
"            O y m u.L p ; % y e.n.j.m.h.m.m.m.h.j.m.9.8.n.n.j.x.C } [ 4 . X y K 4.Z 2 &             ",
"          X : K 8.l.x.M t % 0 f %.m.h.m.Z.h.h.n.m.2.h k c.j.h.c.b } B 7   = G z.x.7.O.y O           ",
"          & x 8.O.3.x.3.g t r Q P #.m.Z.j.h.j.c.C 4 ^ ~ t.Z.m.c.n =. .1 % i $.g.7.C 0.Z :           ",
"        O 9 3.#.5 +.X.3.&.8 6 T.E.I e.n.j.Z.y.l p J._.K.X.M.j.h.$.*.B u y q.8.C $.w X.8.z =         ",
"        1 A 3.g 2 +.z m z.A u Q.'.E.s 5.M.3.5 ! !._.).R.E n.n.B.,.=.V < J z.X.g w.4 4 $.&.8         ",
"      # z 8.b 4 g r.F q $.2.a !.Y.^.L.K M.X._ (.E.' /.Q.R n.M.z.$.C 4 x 9.1.e w $.h g h 8.M ;       ",
"      y #.o.4 B k #.k e k o.s (./.^ ' W b.O.P._ ^ ^.[.Q.R n.x.m q 2 z 9.g.m 5 g &.k c 3 V 4.4       ",
"    % G 3.h k { l w.x N 5 h a /.[.] d W M.r.! u W.{.'.E.T n.8.h z x a.f.o.4 v k %.z { v 5 4.Z +     ",
"    q #.A 5 l  .l %.z [ n 0 t ~.).] ] O.M.2.) ` / (.`.L.A b.&.M z.c.f.$.5 k N z &.k } } f m 4.2     ",
"  ; G 3.S l k } x %.z } N g 1 Y.'.`.] #.B.8.( _.(.(.)./ $.M.+.A j.f.3.h f  .j z &.z =.@.f 4 $.n .   ",
"X t %.A g o.#.>.z %.z <.V v 2 _ '.).) 8.M.m.U E.].`.E.I 9.M.%.Z n.3.z 4  .<.N z %.z 1.1.b h n 4.>   ",
"& I 3.h B :.7.;.l %.k -.6.$.g P R.I.U x.M.M.%.Y U.Y.~ Z n.B.&.j z.b 7 S | :.<.l %.x =.,.8. .5 4.m   ",
"1 C o.5 } g.g.;.l +.z -.3.z 8 H a a #.B.B.B.x.M 0 t h 7.h.h.3.f #.g q 0 f <.;.x %.z <.7.,.3.g Z o.< ",
"7 m g 8 z V 3.1.k r.k <.x = % O.%.%.x.B.B.j.n.v.o.O.9.n.h.h.-.h 5 5 4 X % h <.x O.k =.8.X.z 9 4 m w ",
"% t 6 % ; 1 h o.h L k b :     m m.m.n.m.M.B.B.M.n.B.n.m.m.a.-.c 5 z <     O k z q.z o.z 1 = + ; 0 % ",
"  O       . * 4 5 q.5 2       5 z.M.j.M.M.B.B.B.n.n.M.m.w.[ =.=.[ n %       & 4 A g 4 :         .   ",
"              O 8 M q .       & r.j.m.B.M.j.n.m.B.B.h.0.k [ =.=.=.g X       X 1 M 4 ;               ",
"                & F <         . k c.j.B.m.B.m.m.j.B.m.#.N =.=.-. .,           & h 1 X               ",
"                X 8 @           , o.x.n.M.M.h.h.M.0.o.=.=.=.=.=.x %           O 9 @                 ",
"                  ; X           $ h =.d.x.n.h.h.n.<.B =.=.=.-. .2               ; X                 ",
"                                  0 V *.-.;.;.;.-.=.*.=.*.*.} h %                                   ",
"                                  . 4 X.=.*.*.*.*.=.*.=.=.} b :                                     ",
"                                    % 5 ..=.=.=.*.=.*.=.=.b 2 X                                     ",
"                                      ; 4 n } =.*.-.=.[ k 0 O                                       ",
"                                        # 1 g x n n k w : O                                         ",
"                                          X = 1 , : : #                                             ",
"                                                                                                    ",
"                                                                                                    ",
"                                                                                                    ",
"                                                                                                    "
};
