/* XPM */
static char *_71661dbdc0b459ba7ea4942e42b0dd7B93IDQESGKyrcd84[] = {
/* columns rows colors chars-per-pixel */
"50 50 10 1 ",
"  c #020100",
". c #020001",
"X c #040000",
"o c #050000",
"O c #040001",
"+ c #060000",
"@ c #070101",
"# c #050102",
"$ c #060002",
"% c #060203",
/* pixels */
"$$$$$$$$$$$$$$$###################################",
"$$$$$$$$$$$$$$$###################################",
"$$$$$$$$$$$$$$$###################################",
"$$$$$$$$$$$$$$$###################################",
"$$$$$$$$$$$$$$$###################################",
"$$$$$$$$$$$$$$$###################################",
"$$$$$$$$$$$$$$$###################################",
"$$$$$$$$$$$$$$$###################################",
"$$$$$$$$$$$$$$$###################################",
"$$$$$$$$$$$$$$$###################################",
"$$$$$$$$$$$$$$$###################################",
"$$$$$$$$$$$$$$$###################################",
"$$$$$$$$$$$$$$$$##################################",
"$$$$$$$$$$$$$$$$##################################",
"$$$$$$$$$$$$$$$$##################################",
"$$$$$$$$$$$$$$$$##################################",
"$$$$$$$$$$$$$$$$################################@$",
"$$$$$$$$$$$$$$$$################################$$",
"$$$$$$$$$$$$$$$$################################$$",
"$$$$$$$$$$$$$$$$################################$$",
"$$$$$$$$$$$$$$$$################################$$",
"$$$$$$$$$$$$$$$$################################$$",
"$$$$$$$$$$$$$$##################################$$",
"$$$$$$$$$$$$$###################################$$",
"######################%%########################$$",
"######################%%########################$$",
"######################%%########################$$",
"######################%%########################$$",
"#######################%########################$$",
"######################%%####################$%##$$",
"############################################ %@@$$",
"############################################$%  $$",
"######%%##################################$$$$$$$$",
"######%%##################################$#$$$$$$",
"######%%####################################$$$@$$",
"######%%####################################$$@@$$",
"######%%##################################$$$$@@$$",
"######%##################################$$$$$@@$$",
"##########################################$$$$@@$$",
"##########################################$$$$@@$$",
"######%%##################################$$$$$$$$",
"######%%##################################$#$$$$$$",
"######%%####################################$$$@$$",
"######%%####################################$$@@$$",
"######%%##################################$$$$@@$$",
"######%%#################################$$$$$@@$$",
"######%%##################################$$$$@@$$",
"######%%##################################$$$$@@$$",
"##$$$$$$#####################################$$$$$",
"##$#$$$$####################################$$$$$$"
};
