/* XPM */
static char *_48e5fc41c534eb08948ea6bd9b1eb3dZGcsiIygZI2dYDn1[] = {
/* columns rows colors chars-per-pixel */
"50 50 118 2 ",
"   c #000000",
".  c #0B0000",
"X  c #130000",
"o  c #1A0000",
"O  c #220101",
"+  c #2B0202",
"@  c #340101",
"#  c #3C0201",
"$  c #450201",
"%  c #4C0302",
"&  c #430804",
"*  c #540304",
"=  c #590101",
"-  c #540803",
";  c #550709",
":  c #540A0A",
">  c #5B0A0B",
",  c #5D0911",
"<  c #640102",
"1  c #6A0206",
"2  c #6D0B06",
"3  c #6C060B",
"4  c #730103",
"5  c #7C0202",
"6  c #73030B",
"7  c #79070E",
"8  c #76090B",
"9  c #651206",
"0  c #761001",
"q  c #79140B",
"w  c #850204",
"e  c #8B0204",
"r  c #8A0A01",
"t  c #8A020B",
"y  c #940102",
"u  c #9B0002",
"i  c #920902",
"p  c #9E0A04",
"a  c #900608",
"s  c #9A060F",
"d  c #881907",
"f  c #8E1509",
"g  c #941306",
"h  c #9B1B08",
"j  c #8C0415",
"k  c #900E10",
"l  c #A40101",
"z  c #AC0101",
"x  c #A30A04",
"c  c #A30A09",
"v  c #AB0809",
"b  c #B40100",
"n  c #BC0101",
"m  c #B5070C",
"M  c #BB060C",
"N  c #B8090D",
"B  c #A51C0B",
"V  c #B01C03",
"C  c #AC0317",
"Z  c #BC0413",
"A  c #B20E10",
"S  c #BB0D11",
"D  c #B91D13",
"F  c #9E200A",
"G  c #A62C08",
"H  c #AA2511",
"J  c #A32B13",
"K  c #B22211",
"L  c #BC3611",
"P  c #B0341B",
"I  c #C50101",
"U  c #CC0001",
"Y  c #C3020E",
"T  c #CE020C",
"R  c #D30001",
"E  c #DB0001",
"W  c #D00A06",
"Q  c #D70D0D",
"!  c #D80808",
"~  c #CE1103",
"^  c #C81F0A",
"/  c #C40513",
"(  c #E30201",
")  c #EB0100",
"_  c #E30B02",
"`  c #EB0903",
"'  c #E5050B",
"]  c #E20A0A",
"[  c #F10101",
"{  c #EA1004",
"}  c #E81D07",
"|  c #EA170A",
" . c #E31B09",
".. c #F21E09",
"X. c #D62707",
"o. c #C43510",
"O. c #C33114",
"+. c #D13710",
"@. c #EE2609",
"#. c #F12E0C",
"$. c #E02D1A",
"%. c #F32E1B",
"&. c #F53D1F",
"*. c #FC4419",
"=. c #D55820",
"-. c #DA562A",
";. c #DD5233",
":. c #E1482B",
">. c #E95420",
",. c #FA5D22",
"<. c #FA5431",
"1. c #EA6B2C",
"2. c #FB6626",
"3. c #F9602F",
"4. c #F16D2E",
"5. c #FA762F",
"6. c #FE6E32",
"7. c #FE7347",
/* pixels */
"                                                                                                    ",
"                                                                                                    ",
"                                                                                                    ",
"                                                                                                    ",
"                                                                                                    ",
"                                                                                                    ",
"                                                                                                    ",
"                                                                                                    ",
"                                                                                                    ",
"                                                                                                    ",
"                                                                                                    ",
"                                                                                                    ",
"                                                                        .                           ",
"                            . . X o X o o o O O O O O X o o X X X X . . .                           ",
"                          . X O @ & & % - * * = = = * $ # # @ @ + @ + O X .                         ",
"                        X o + $ q J H K D S S Z Z m v p i r 5 5 6 3 q , @ X . .                     ",
"                        X O # 0 P ;.:.$.] ] ] ' ' ! R I n z x y y e t 7 ; @ X .                     ",
"                      . o @ 9 G -.7.3.%.` ) [ [ ) ) ( R W I b z l l u w 8 ; @ X .                   ",
"                      X @ 9 G =.4.6.*...( ( E E E E R R U I I b b z l y e 6 * O X .                 ",
"                    . o - d L 1.5.2.#.{ E E R R R U U R R U U n b z u u y w 3 # O . .               ",
"                    . O 2 h o.1.5.,.} _ E R R U U U U U R U U n b l l u u e 6 : + . .               ",
"                      o * f O.>.3.<.| ` ( R U I I U U R R R U n b z u u y e 1 @ o   .               ",
"                    . o # 2 B +.:.&.` ) ( R R U U T U U R U I n b l u y e 4 * + o   .               ",
"                      X O % 5 V X.@.` [ ) E R U U U U U U U I n b l u e 5 = @ o . .                 ",
"                        X O $ r ^  .` [ [ ( E R R R R U I U I b z l y 5 = @ o X .                   ",
"                        . X + = g ^ _ ) [ ) ) E E R R U U I M b l u t 1 @ O . .                     ",
"                          . X + > F ~ _ [ [ ) ( E R U U U U n z u t 1 $ O X .                       ",
"                            . X + - x W ` ) ) ( E R U U U I n l e 1 $ O X .                         ",
"                                X + < c Q ( ) ( E U U U U n b y 4 $ O . .                           ",
"                                  X + 2 A ! ( ( R U I U I b u 5 = O X .                             ",
"                                    X @ 2 m R ( R U I I n l 5 = @ o .                               ",
"                                    . X # e M T T Y n n z y < # O .                                 ",
"                                        o < a S / Y M z y 4 $ O X                                   ",
"                                        . O ; k N / Z y 4 % + o .                                   ",
"                                          . + > s C C 6 * + o X .                                   ",
"                                            X + 6 j j * @ X X .                                     ",
"                                            . o @ ; , O X . .                                       ",
"                                              . o + + X                                             ",
"                                                . . .                                               ",
"                                                                                                    ",
"                                                                                                    ",
"                                                                                                    ",
"                                                                                                    ",
"                                                                                                    ",
"                                                                                                    ",
"                                                                                                    ",
"                                                                                                    ",
"                                                                                                    ",
"                                                                                                    ",
"                                                                                                    "
};
