/* XPM */
static char *_ee3d2869e8e438c915266dcf70d84a1ZJriGRj5kaTNrt1H[] = {
/* columns rows colors chars-per-pixel */
"50 50 105 2 ",
"   c #000000",
".  c #0C0000",
"X  c #130000",
"o  c #1B0000",
"O  c #220101",
"+  c #2C0202",
"@  c #330101",
"#  c #3B0101",
"$  c #370907",
"%  c #440202",
"&  c #4C0101",
"*  c #4B0B06",
"=  c #540201",
"-  c #5A0201",
";  c #540A04",
":  c #5B0B05",
">  c #5A0609",
",  c #52090A",
"<  c #640203",
"1  c #6A0504",
"2  c #660509",
"3  c #620D0C",
"4  c #6C090C",
"5  c #760102",
"6  c #7C0404",
"7  c #75010C",
"8  c #7F090A",
"9  c #741908",
"0  c #7A0C16",
"q  c #840305",
"w  c #8A0104",
"e  c #81020B",
"r  c #880209",
"t  c #940103",
"y  c #9C0001",
"u  c #950F03",
"i  c #9F0B0D",
"p  c #841707",
"a  c #811008",
"s  c #951908",
"d  c #8B0213",
"f  c #9D0217",
"g  c #A20101",
"h  c #AA0001",
"j  c #A10A01",
"k  c #A20A0E",
"l  c #B20101",
"z  c #BC0101",
"x  c #B10B03",
"c  c #B40109",
"v  c #A51102",
"b  c #B71204",
"n  c #B51F0B",
"m  c #A90114",
"M  c #BD0614",
"N  c #9B2C0F",
"B  c #A72707",
"V  c #B22F1B",
"C  c #C40102",
"Z  c #CC0001",
"A  c #C2030F",
"S  c #CD050C",
"D  c #C10908",
"F  c #D30000",
"G  c #DC0000",
"H  c #DF0802",
"J  c #D10809",
"K  c #DC1104",
"L  c #CC0E10",
"P  c #D80712",
"I  c #D60D12",
"U  c #DA0915",
"Y  c #D51E14",
"T  c #E30201",
"R  c #EC0201",
"E  c #EA0D04",
"W  c #E60908",
"Q  c #F00200",
"!  c #F20105",
"~  c #EA1103",
"^  c #ED1405",
"/  c #CD2C07",
"(  c #DB200A",
")  c #CF2A16",
"_  c #C23014",
"`  c #C23D15",
"'  c #CA3B15",
"]  c #C63119",
"[  c #EC2B0E",
"{  c #F2230E",
"}  c #EE340F",
"|  c #EE2213",
" . c #EE321F",
".. c #F43B12",
"X. c #EE511D",
"o. c #DA5920",
"O. c #FD5326",
"+. c #FB5B36",
"@. c #FE6D2D",
"#. c #FD752D",
"$. c #EA653F",
"%. c #F6613E",
"&. c #F67732",
"*. c #FA7432",
"=. c #F97439",
/* pixels */
"                                                                                                    ",
"                                                                                                    ",
"                                                                                                    ",
"                                                                                                    ",
"                                                                                                    ",
"                                                                                                    ",
"                                                                                                    ",
"                                                                                                    ",
"                                                                                                    ",
"                                                                                                    ",
"                                                                                                    ",
"                                                                                                    ",
"                                                                                                    ",
"                                                                                                    ",
"                                                                                                    ",
"                                                                                                    ",
"                                                                                                    ",
"                                . . X o X o o O o O o X X X X X . . .                               ",
"                              . X + * ; : : < 2 2 < - & % % # # # + X . .                           ",
"                            . o @ 1 V ] ) Y I U P J D x j t w w 8 0 * o . .                         ",
"                            . + ; B $.%. .R R ! ! T G Z z l g y y r 4 % o .                         ",
"                          . O : N o.=.O.{ T T T G G G F Z z l h g t q 1 $ X .                       ",
"                          . % p ` &.#...~ G F F F Z F F Z C C l g y t e > + .                       ",
"                          . ; s ' *.@.[ T H F Z Z Z Z F F Z C l g y y w 2 $ . .                     ",
"                          . # a _ X.+.| T G F Z C Z S F Z Z z l g y t 6 = O   .                     ",
"                          . O = u / } ^ R T F Z Z Z Z Z Z C z h y t q < # X . .                     ",
"                            X + - v ( E Q Q G F F F Z Z C C z h y w < # o .                         ",
"                              X @ 1 n K R Q R T G F F Z Z C l g t 5 # o .                           ",
"                              . X @ 9 b T R ! T G F Z Z Z z h t 7 & O X                             ",
"                                  . O 6 b W R T G F Z Z Z c y 5 % X .                               ",
"                                    . + 8 L R R G Z Z Z C h q = o .                                 ",
"                                      X # 8 J T F C C C l w - @ X .                                 ",
"                                        X & j S S C z c y < # X                                     ",
"                                          O < i M A c y 5 % O .                                     ",
"                                          . o 3 k M m 5 % + X .                                     ",
"                                            . o 7 f d & o o .                                       ",
"                                              X @ > , o . .                                         ",
"                                                X O o .                                             ",
"                                                . .                                                 ",
"                                                                                                    ",
"                                                                                                    ",
"                                                                                                    ",
"                                                                                                    ",
"                                                                                                    ",
"                                                                                                    ",
"                                                                                                    ",
"                                                                                                    ",
"                                                                                                    ",
"                                                                                                    ",
"                                                                                                    "
};
