/* XPM */
static char *a1667d85d3324d86a10badd51052806chaopXqN4p2QQq7GH[] = {
/* columns rows colors chars-per-pixel */
"50 50 149 2 ",
"   c #000000",
".  c #0B0000",
"X  c #130000",
"o  c #1B0000",
"O  c #220101",
"+  c #2C0000",
"@  c #2F0805",
"#  c #330101",
"$  c #3B0202",
"%  c #3F0A07",
"&  c #430102",
"*  c #4C0201",
"=  c #430804",
"-  c #4D0B04",
";  c #4D0708",
":  c #410B09",
">  c #4B0808",
",  c #520202",
"<  c #5B0203",
"1  c #5D0D06",
"2  c #540308",
"3  c #5D0709",
"4  c #54080A",
"5  c #5D080A",
"6  c #5A1009",
"7  c #630202",
"8  c #6C0203",
"9  c #640E05",
"0  c #62040A",
"q  c #6A0A0E",
"w  c #740304",
"e  c #7C0104",
"r  c #740508",
"t  c #7B030A",
"y  c #76080B",
"u  c #6C1407",
"i  c #7B1304",
"p  c #7D1A08",
"a  c #660B13",
"s  c #720610",
"d  c #7D0310",
"f  c #840303",
"g  c #8D0103",
"h  c #8F0D01",
"j  c #86060D",
"k  c #8B060A",
"l  c #930103",
"z  c #9B0001",
"x  c #900801",
"c  c #9A0A02",
"v  c #94010B",
"b  c #960D0F",
"n  c #821107",
"m  c #9B1002",
"M  c #8C0213",
"N  c #970315",
"B  c #811010",
"V  c #A30001",
"C  c #AD0100",
"Z  c #A50B03",
"A  c #A90609",
"S  c #A70C0F",
"D  c #B30101",
"F  c #BC0101",
"G  c #BC0A05",
"H  c #B2010A",
"J  c #B10908",
"K  c #BC0A0D",
"L  c #A61106",
"P  c #AF1204",
"I  c #A31E0E",
"U  c #AC0313",
"Y  c #BB0811",
"T  c #B00319",
"R  c #93210A",
"E  c #9C2D0F",
"W  c #A52705",
"Q  c #A52208",
"!  c #BB2103",
"~  c #B2250D",
"^  c #AC2C18",
"/  c #BA2612",
"(  c #B22914",
")  c #AC3119",
"_  c #C40101",
"`  c #CC0001",
"'  c #C4050C",
"]  c #C9030F",
"[  c #C90809",
"{  c #D30000",
"}  c #DB0101",
"|  c #D50B02",
" . c #D20208",
".. c #DC0B0A",
"X. c #C31A06",
"o. c #D21605",
"O. c #D21E0B",
"+. c #C40611",
"@. c #C50C12",
"#. c #C90814",
"$. c #C30319",
"%. c #C41B13",
"&. c #E30101",
"*. c #EB0201",
"=. c #E40B01",
"-. c #EA0D03",
";. c #E4050B",
":. c #E2090B",
">. c #F20101",
",. c #E71202",
"<. c #ED1306",
"1. c #EF1E0E",
"2. c #D82A07",
"3. c #DE2012",
"4. c #CC3817",
"5. c #D53A10",
"6. c #E5220A",
"7. c #F32206",
"8. c #F02D0A",
"9. c #EF2C14",
"0. c #F03811",
"q. c #F83618",
"w. c #E03B22",
"e. c #C14218",
"r. c #CC4418",
"t. c #CC4E1A",
"y. c #E9431B",
"u. c #F94717",
"i. c #EC541F",
"p. c #DE4A2C",
"a. c #D55028",
"s. c #DA5233",
"d. c #F74523",
"f. c #FD572A",
"g. c #F85D2E",
"h. c #F94C30",
"j. c #FD5D3A",
"k. c #E8652C",
"l. c #EA6B2B",
"z. c #FD6D26",
"x. c #FD662C",
"c. c #F36B2D",
"v. c #F7742F",
"b. c #FE732F",
"n. c #F37532",
"m. c #FC7830",
"M. c #FE763C",
"N. c #FE6843",
"B. c #FE774D",
/* pixels */
"                                                                                                    ",
"                                                                                                    ",
"                                                                                                    ",
"                                                                                                    ",
"                                                                                                    ",
"                                                                                                    ",
"                                                                                                    ",
"                                                                                                    ",
"                                                                                                    ",
"                                                                                                    ",
"                                                                                                    ",
"                                                                                                    ",
"                                                                            .                       ",
"                              . . . . . . . X X X . . . . . . . .   .     .                         ",
"                      . X X o O O O + + + + # + # + + o O o o o o o o X . . .                       ",
"                    . X o + = 6 1 5 9 9 8 8 r r 8 8 7 < , * * & & & & % @ o X   .                   ",
"                  . X o # , p ^ ( / / %.@.#.#.#.' K J Z c x f f e e e s a & O .   .                 ",
"                  . o + * i ) s.p.w.3.:.:.;.;.;.} ..[ _ G C V z l l g j d 5 % o X . .               ",
"                  X O $ 9 W a.B.N.h.1.*.>.>.>.>.>.*.&.} ` _ F C V V V l f y 5 $ O                   ",
"                . O = u E t.k.M.f.q.<.&.&.&.&.&.} } { { ` _ _ D C C C z l j r < $ X X .             ",
"              . . # 1 R e.l.v.b.u.7.-.&.} } { { ` { ` { ` ` _ _ F C C V z l f r ; + o . .           ",
"                X - n Q r.n.m.z.0.,.&.} { { ` ` ` ` { { { { ` _ F D V z z v g f 0 % O . .           ",
"              . X * n Q 4.c.b.x.9.=.&.} { ` ` ` ` ` { { { { _ _ F C V z z z l e 0 : O . .           ",
"                . = 8 I 4.i.g.j.9.&.&.} { ` ` _ _ ` ` ` { { _ _ F D V z z z g e 2 + o               ",
"                X + , n ~ 5.y.d.1.*.&.&.{ ` ` ` ` ` ` ` { ` _ _ F C V z l g e 7 = O X   .           ",
"              . . o $ 7 h ! 2.8.<.*.>.&.{ ` ` { { ] ` ` ` ` _ _ F C z z g f 8 * + X . . .           ",
"                . X o $ 7 m X.6.,.*.>.*.&.} { { {  .` ` ` ` _ F D C V l g 8 * + o X . .             ",
"                    X o & w L O.,.*.>.>.*.&.} } { { ` ` ` _ _ F H V z l w , + o . .                 ",
"                    . X + & p ~ o.=.*.>.*.*.} } { { ` ` ` _ _ H V z v t < # O X .                   ",
"                      . X + - p P | &.*.>.*.&.} { { { ` ` ' F D V g t < $ O X .                     ",
"                          . o $ f G ..-.*.*.&.} { { ` ` ` ` F C z e < # o X .                       ",
"                            X o - k Y ..*.*.&.} { ` ` ` ` _ D V f 7 $ O X .                         ",
"                              . + * b @.=.&.&.} { ` _ ` _ F V g w * o . .                           ",
"                                X + 2 k [ ..&.} ` _ _ ` F D l 8 , # X .                             ",
"                                . X + 7 A ' }  .` _ _ F D z e , # O .                               ",
"                                    X $ f A ' ] +.F F H z g < $ O X                                 ",
"                                    . O * t S Y +.+.H z g 8 & + o .                                 ",
"                                      . o > B S +.$.U g 8 & + o X .                                 ",
"                                      . . @ ; j U T N 8 * + O X . .                                 ",
"                                          . O 3 M N d * + o X X                                     ",
"                                          . o $ 2 q 4 + o . .                                       ",
"                                            . o + : @ . .                                           ",
"                                              . X X X                                               ",
"                                              . . .                                                 ",
"                                                                                                    ",
"                                                                                                    ",
"                                                                                                    ",
"                                                                                                    ",
"                                                                                                    ",
"                                                                                                    "
};
