/* XPM */
static char *_7a5bad80ae547fe973024a9b921290dNEyqE9FpeDEM2dfa[] = {
/* columns rows colors chars-per-pixel */
"50 50 153 2 ",
"   c black",
".  c #020100",
"X  c #070000",
"o  c #050302",
"O  c #070302",
"+  c #0B0000",
"@  c #0D0100",
"#  c #0D0805",
"$  c #120000",
"%  c #140000",
"&  c #160000",
"*  c #140400",
"=  c #1A0000",
"-  c #1B0300",
";  c #1E0000",
":  c #130902",
">  c #1C0801",
",  c #210000",
"<  c #270000",
"1  c #2B0000",
"2  c #2F0000",
"3  c #300000",
"4  c #350000",
"5  c #3C0000",
"6  c #3D0000",
"7  c #350803",
"8  c #410000",
"9  c #480000",
"0  c #4B0000",
"q  c #4E0000",
"w  c #560406",
"e  c #5C0000",
"r  c #5B0006",
"t  c #57070C",
"y  c #4D1715",
"u  c #5B1814",
"i  c #6C0000",
"p  c #6F0600",
"a  c #7C0605",
"s  c #7B0800",
"d  c #72060C",
"f  c #7F090B",
"g  c #6C0E11",
"h  c #7E0912",
"j  c #6C1416",
"k  c #791817",
"l  c #77151E",
"z  c #880904",
"x  c #84020B",
"c  c #84070C",
"v  c #8E030F",
"b  c #8A060C",
"n  c #8D0B08",
"m  c #910505",
"M  c #980300",
"N  c #9D0200",
"B  c #9F0300",
"V  c #9D0006",
"C  c #910F05",
"Z  c #980108",
"A  c #9F0008",
"S  c #97080C",
"D  c #9C1206",
"F  c #800311",
"G  c #890710",
"H  c #900616",
"J  c #94071A",
"K  c #821911",
"L  c #A10000",
"P  c #A90000",
"I  c #AF0000",
"U  c #AC0006",
"Y  c #AD0906",
"T  c #AE080B",
"R  c #B40000",
"E  c #B50304",
"W  c #BF0000",
"Q  c #BB0500",
"!  c #B70900",
"~  c #B80C00",
"^  c #BF060B",
"/  c #B9030C",
"(  c #BB000E",
")  c #AD120D",
"_  c #B0140A",
"`  c #BF1116",
"'  c #BD191C",
"]  c #AB2B0B",
"[  c #A62F16",
"{  c #B82B10",
"}  c #B82C1A",
"|  c #A20A21",
" . c #B83421",
".. c #C70200",
"X. c #C20700",
"o. c #C00305",
"O. c #C40005",
"+. c #C50707",
"@. c #CB0000",
"#. c #CB0200",
"$. c #C90005",
"%. c #CD0006",
"&. c #C70209",
"*. c #CA000C",
"=. c #CB000D",
"-. c #CD020C",
";. c #C9050D",
":. c #D20200",
">. c #D10003",
",. c #D60000",
"<. c #D40600",
"1. c #D20005",
"2. c #D50006",
"3. c #D90000",
"4. c #DE0100",
"5. c #D00009",
"6. c #CB0B1B",
"7. c #D40F18",
"8. c #C51114",
"9. c #D2161A",
"0. c #D7111D",
"q. c #E10000",
"w. c #E30200",
"e. c #E50000",
"r. c #E80100",
"t. c #EE0300",
"y. c #E70B00",
"u. c #E60E00",
"i. c #EA0A00",
"p. c #EE0B00",
"a. c #E1090D",
"s. c #E60E0C",
"d. c #F10400",
"f. c #F60500",
"g. c #F20106",
"h. c #F30806",
"j. c #F6040A",
"k. c #E21600",
"l. c #E71311",
"z. c #C52B0C",
"x. c #C52F1A",
"c. c #DC2213",
"v. c #D32B1D",
"b. c #F23413",
"n. c #FB3412",
"m. c #C30522",
"M. c #F15623",
"N. c #ED6E2F",
"B. c #FE6F2A",
"V. c #FE7837",
"C. c #FE6141",
"Z. c #FE7750",
"A. c #FE813D",
/* pixels */
"                                                                                                    ",
"                                                                                                    ",
"                                                                                                    ",
"                                                                                                    ",
"                                                                                                    ",
"                                                                                                    ",
"                                                                                                    ",
"                                                                                                    ",
"                                                                                                    ",
"                                                                                                    ",
"                                                                                                    ",
"                                                                                                    ",
"                                                                                                    ",
"                                                                                                    ",
"                                                                                                    ",
"                                                                                                    ",
"                                                          +                                         ",
"                                            X X o o o o O o o o O O                                 ",
"                                        X X X X + + + + + X + X O   @                               ",
"                                      & ; 2 2 4 6 8 8 6 3 1 < < < = @ @                             ",
"                                    > < e  .x.v.9.0.7.8._ D n c F l 7 @ *                           ",
"                                    ; 8 ] Z.C.y.h.j.g.r.<.X.I L L G j 3 @                           ",
"                                  & 8 [ N.V.n.y.3.,.>.>.>.#.W R P M b g , =                         ",
"                                  & K { A.B.k.4.>.#.#.#.>.>...Q L N Z h y $ @                       ",
"                                  & e } M.C.u.q.:...O.=.5.>.X.! L M S d 3 @ #                       ",
"                                  & 2 s z.b.i.t.>.#.-.=.#.#.X.~ B m f 9 = : #                       ",
"                                    & 1 C c.p.f.e.3.2.5.$.&.^ U A G 9 = *                           ",
"                                      = 6 [ k.t.d.q.,.>.%.;./ A H r ; &                             ",
"                                        $ 2 ) l.t.e.,.#.#.#.E m t ; &                               ",
"                                          $ 6 ' s.r.>...%.^ N p , $                                 ",
"                                            & 8 8.a.-.W +.Y i 4 &                                   ",
"                                              & a ` 6./ T z 8 =                                     ",
"                                                ; k ` m.x q , -                                     ",
"                                                @ , J | w ; ;                                       ",
"                                                  & 3 u & @                                         ",
"                                                    & $ X                                           ",
"                                                      O O O                                         ",
"                                                        o o                                         ",
"                                                                                                    ",
"                                                                                                    ",
"                                                                                                    ",
"                                                                                                    ",
"                                                                                                    ",
"                                                                                                    ",
"                                                                                                    ",
"                                                                                                    ",
"                                                                                                    ",
"                                                                                                    ",
"                                                                                                    ",
"                                                                                                    "
};
