/* XPM */
static char *_493985afcea4b06c0157ae813b9094dgI69CNpxXGkJywCt[] = {
/* columns rows colors chars-per-pixel */
"50 50 165 2 ",
"   c #000000",
".  c #0B0000",
"X  c #130000",
"o  c #1C0000",
"O  c #240101",
"+  c #2B0101",
"@  c #330101",
"#  c #3C0101",
"$  c #340907",
"%  c #3C0906",
"&  c #450101",
"*  c #4C0202",
"=  c #450904",
"-  c #4C0904",
";  c #4F0708",
":  c #4E0A0A",
">  c #540202",
",  c #5C0202",
"<  c #530B05",
"1  c #5B0905",
"2  c #5E0508",
"3  c #52090B",
"4  c #5A0A0C",
"5  c #640204",
"6  c #6B0102",
"7  c #660B04",
"8  c #690B03",
"9  c #64040B",
"0  c #6D050A",
"q  c #65090C",
"w  c #730303",
"e  c #7B0304",
"r  c #760904",
"t  c #7B0B04",
"y  c #740109",
"u  c #7A050A",
"i  c #760B0D",
"p  c #721606",
"a  c #741808",
"s  c #6D0910",
"d  c #850103",
"f  c #8B0104",
"g  c #850A01",
"h  c #8C0902",
"j  c #84020B",
"k  c #8A0109",
"l  c #820A0C",
"z  c #940103",
"x  c #9C0101",
"c  c #930A04",
"v  c #9F0B04",
"b  c #9A0109",
"n  c #9B0B0D",
"m  c #821505",
"M  c #891408",
"N  c #851A0D",
"B  c #9D1506",
"V  c #9B1D09",
"C  c #800510",
"Z  c #8B0515",
"A  c #990215",
"S  c #A40101",
"D  c #AB0001",
"F  c #A40906",
"G  c #AB0801",
"H  c #A6060A",
"J  c #AC060C",
"K  c #AD0D0F",
"L  c #B30101",
"P  c #BC0101",
"I  c #B50902",
"U  c #BF0904",
"Y  c #B3050A",
"T  c #BC060A",
"R  c #B5090F",
"E  c #A41702",
"W  c #A31F0E",
"Q  c #B01304",
"!  c #BB1909",
"~  c #A30314",
"^  c #AB0115",
"/  c #A80319",
"(  c #B40411",
")  c #B00810",
"_  c #BA0319",
"`  c #AA1C10",
"'  c #95210A",
"]  c #9B2312",
"[  c #A42108",
"{  c #A92109",
"}  c #BF2909",
"|  c #A12F10",
" . c #AD2F12",
".. c #B92911",
"X. c #BD3C15",
"o. c #B4341E",
"O. c #C40101",
"+. c #CC0001",
"@. c #C70A04",
"#. c #C9040E",
"$. c #CD0A0A",
"%. c #D20000",
"&. c #DB0001",
"*. c #DD0A04",
"=. c #D20509",
"-. c #DB060D",
";. c #D10D0F",
":. c #C21204",
">. c #D91203",
",. c #DA100F",
"<. c #D41B09",
"1. c #C30412",
"2. c #DF0611",
"3. c #D91911",
"4. c #E30201",
"5. c #EC0202",
"6. c #E40A03",
"7. c #EA0B02",
"8. c #E10A09",
"9. c #F10100",
"0. c #E71102",
"q. c #ED1206",
"w. c #ED170C",
"e. c #E51A08",
"r. c #ED1C0D",
"t. c #E61E11",
"y. c #C62205",
"u. c #C1200A",
"i. c #DA350E",
"p. c #D82514",
"a. c #C83615",
"s. c #C63D14",
"d. c #D73F15",
"f. c #D5321B",
"g. c #EB230A",
"h. c #E02809",
"j. c #EE2E0C",
"k. c #F52F12",
"l. c #EC3A15",
"z. c #D23B20",
"x. c #CB4B1C",
"c. c #EB4C1E",
"v. c #CD4025",
"b. c #D85432",
"n. c #ED4228",
"m. c #F84025",
"M. c #FC4C20",
"N. c #F84E2A",
"B. c #F75421",
"V. c #F6522B",
"C. c #EF5837",
"Z. c #FD5E37",
"A. c #E36227",
"S. c #EA6329",
"D. c #E8682B",
"F. c #FC6326",
"G. c #F7612A",
"H. c #FD752C",
"J. c #ED623E",
"K. c #ED6839",
"L. c #FC6434",
"P. c #FD6A32",
"I. c #F67234",
"U. c #FC7531",
"Y. c #FB7A33",
/* pixels */
"                                                                                                    ",
"                                                                                                    ",
"                                                                                                    ",
"                                                                                                    ",
"                                                                                                    ",
"                                                                                                    ",
"                                                                                                    ",
"                                                                                                    ",
"                                                            .                                       ",
"                                                .                                                   ",
"                      .   . . . X . X . X X X X X X . . . . . . . . .   . .                         ",
"                  . . . o o o O O O O + + @ @ @ @ + + O O o O o o o o o o . . .   .                 ",
"              . . X o O @ = : < < 1 1 2 q 5 5 5 5 , , > * & & # # # # # @ $ O o X     .             ",
"              . X o O # 1 N ] ] W ` ` K ) ( ) ) J H v c h g t e w 6 6 6 9 q 3 @ o X   . .           ",
"              . o O # 7 N o.v.z.f.p.3.,.2.2.2.2.-.=.@.U I G S x z f f f j C s 3 $ X X . .           ",
"            . X O + < t  .b.J.C.n.t.6.7.2.5.5.5.4.4.&.%.@.P L G S x x b b k u q : $ o X .           ",
"            . o @ - a ] x.K.P.Z.m.w.5.5.5.5.5.5.5.4.&.&.+.+.P P L D S S x z f u q * @ X .           ",
"          . X + - a | x.A.I.P.M.k.q.4.4.4.&.&.&.&.&.%.&.%.+.O.P L L D D S x f f u 5 * + X X .       ",
"          . o % 7 ' X.A.I.H.F.M.g.7.4.&.&.%.%.%.+.%.%.%.%.%.+.O.O.P L D S x x z f u 4 # O X X       ",
"        . . + 1 m [ s.D.Y.H.B.j.0.4.&.&.%.%.+.+.+.+.+.%.%.%.+.+.O.P L D S x x z f u 0 : $ o .       ",
"        . . + 1 M { x.S.U.H.B.g.6.4.&.&.+.+.+.+.+.+.+.%.%.%.%.+.O.P L S S x x x z j y 3 $ o . .     ",
"          . O * t [ a.c.G.L.N.r.6.4.&.%.%.+.+.O.+.+.+.%.+.%.+.O.O.P L G S x z x z e 5 & O X   .     ",
"          . o & 7 M ..d.c.V.m.r.4.4.4.&.+.+.+.O.#.+.%.+.+.%.+.+.P P L D x x z z k w > @ o . .   .   ",
"          . X + * r B } i.l.k.q.5.5.4.&.%.+.+.+.+.+.+.+.+.+.+.O.O.P L S x z z d e , & O X X .       ",
"          . X o @ , t E y.h.g.7.5.9.5.&.%.+.%.+.+.+.+.+.+.+.+.O.P P L S x z f e 5 & + o X . .   .   ",
"            . X o @ > g Q <.e.7.9.9.5.4.&.&.&.%.%.=.+.+.+.+.#.O.P L D S x z e 5 & + o X .           ",
"              . . o @ 5 c ! <.6.5.9.9.5.4.4.&.&.%.%.%.+.+.+.O.P P Y S S z d 6 * @ o X . .           ",
"                . X + & 8 V u.>.7.5.9.5.5.4.&.&.%.%.%.%.+.#.+.P L D b b k y > @ o X . .             ",
"                  . o O = p V :.*.5.5.5.5.5.&.&.&.%.%.+.+.+.O.P L S z k y , # O X X .               ",
"                  . . X O % 7 v @.*.7.5.5.4.4.&.%.+.+.+.+.+.O.P L x f 6 > @ O o X                   ",
"                        . o # r F $.8.5.5.5.&.&.%.+.+.+.+.+.O.L S z w , # O X . .                   ",
"                        . . O & w K ;.8.4.5.4.&.%.+.+.+.+.+.P D x d 5 # O X . .                     ",
"                          . X O * l K =.6.4.4.%.%.+.O.+.O.O.D x d 6 > + X . .                       ",
"                              X + * u Y =.*.4.%.+.O.O.O.O.P S f 6 * @ o X                           ",
"                              . X + > b T =.=.=.#.O.P O.L D z w > # O X .                           ",
"                                . X @ w v T #.#.#.O.T L D x d , # O X .                             ",
"                                . . O * u n ( 1.1.T T D b d 6 & + o X                               ",
"                                    . O = i n R 1.1.( b d 6 * @ o o . .                             ",
"                                      . + : i A ( _ ^ k 6 * @ O o X .                               ",
"                                      . X O ; C ~ / A y > @ O o X .                                 ",
"                                        . X @ 9 C Z C > @ O X X .                                   ",
"                                          . o # ; q 4 $ o . . .                                     ",
"                                          . X O + % $ o .                                           ",
"                                          .   X o o o X                                             ",
"                                              . . . .                                               ",
"                                                                                                    ",
"                                                                                                    ",
"                                                                                                    ",
"                                                                                                    ",
"                                                                                                    "
};
