/* XPM */
static char *f4c0fb8549d743cef32153d095636359PcJXTcS7VEhQi4xC[] = {
/* columns rows colors chars-per-pixel */
"50 50 170 2 ",
"   c #000000",
".  c #060708",
"X  c #0B0B0B",
"o  c #10120F",
"O  c #0E0F10",
"+  c #0F1111",
"@  c #131414",
"#  c #191717",
"$  c #141915",
"%  c #161719",
"&  c #181719",
"*  c #171918",
"=  c #1B1B1B",
"-  c #221C1C",
";  c #2B1D1D",
":  c #3D1F1D",
">  c #1E201F",
",  c #28241F",
"<  c #36221F",
"1  c #3C221E",
"2  c #1E1F21",
"3  c #241F21",
"4  c #371E21",
"5  c #3D1F23",
"6  c #1F2121",
"7  c #232323",
"8  c #2B2424",
"9  c #262826",
"0  c #292926",
"q  c #232628",
"w  c #2B2628",
"e  c #2D2B2B",
"r  c #332323",
"t  c #3C2223",
"y  c #342B2C",
"u  c #382C2E",
"i  c #372F30",
"p  c #3B3737",
"a  c #491F1E",
"s  c #541E1F",
"d  c #5B1C1E",
"f  c #641C1F",
"g  c #6D1B1E",
"h  c #77171C",
"j  c #7C161D",
"k  c #751A1D",
"l  c #7C191E",
"z  c #4D201F",
"x  c #52211F",
"c  c #451F23",
"v  c #4B1F21",
"b  c #541E21",
"n  c #5B1E21",
"m  c #641E21",
"M  c #6B1D22",
"N  c #731D22",
"B  c #7D1E22",
"V  c #442122",
"C  c #4B2123",
"Z  c #452C2E",
"A  c #532122",
"S  c #5A2123",
"D  c #5D2629",
"F  c #4C2E32",
"G  c #453231",
"H  c #423B3C",
"J  c #622123",
"K  c #6B2124",
"L  c #6E2628",
"P  c #682A2D",
"I  c #732124",
"U  c #7D2124",
"Y  c #7A2A2E",
"T  c #444545",
"R  c #4C4343",
"E  c #474949",
"W  c #4F5350",
"Q  c #565656",
"!  c #5C5A5A",
"~  c #614A4B",
"^  c #625859",
"/  c #666565",
"(  c #676B6B",
")  c #7C7B7A",
"_  c #85171C",
"`  c #8B161B",
"'  c #84191D",
"]  c #8B1A1F",
"[  c #9E1317",
"{  c #95151A",
"}  c #9C151B",
"|  c #941B1F",
" . c #9C191D",
".. c #A31317",
"X. c #A81217",
"o. c #A4141A",
"O. c #AB151B",
"+. c #A31A1E",
"@. c #AC191E",
"#. c #B3151C",
"$. c #BD161C",
"%. c #B41A1E",
"&. c #BB1B1E",
"*. c #841E23",
"=. c #8C1D22",
"-. c #931D23",
";. c #9B1D22",
":. c #A11721",
">. c #A51C22",
",. c #AC1B22",
"<. c #B51B22",
"1. c #BC1B23",
"2. c #832125",
"3. c #8C2122",
"4. c #932026",
"5. c #9A2025",
"6. c #A12026",
"7. c #A82026",
"8. c #B32026",
"9. c #C3171D",
"0. c #CC161D",
"q. c #C5181E",
"w. c #CD181F",
"e. c #D6171F",
"r. c #D9171F",
"t. c #D3191E",
"y. c #D5191F",
"u. c #DA181E",
"i. c #C41720",
"p. c #CC1721",
"a. c #C41B23",
"s. c #C91B22",
"d. c #CB1A23",
"f. c #D71721",
"g. c #D61722",
"h. c #D91722",
"j. c #D51821",
"k. c #D51822",
"l. c #D61822",
"z. c #DA1821",
"x. c #DA1A22",
"c. c #E61D25",
"v. c #EC1A25",
"b. c #E71D29",
"n. c #F31C25",
"m. c #F81A26",
"M. c #FA1B29",
"N. c #807F7F",
"B. c #7E8281",
"V. c #808483",
"C. c #858788",
"Z. c #8C8F8E",
"A. c #8D8E91",
"S. c #939293",
"D. c #969A99",
"F. c #9B9B9B",
"G. c gray65",
"H. c #A5A9AA",
"J. c #ADAEAD",
"K. c #B5B4B4",
"L. c #BCBCBB",
"P. c #C4C4C4",
"I. c #C6C5C9",
"U. c #CBCACA",
"Y. c #D4D5D4",
"T. c #D7D8D8",
"R. c gainsboro",
"E. c #E4E4E3",
"W. c #E6E8E6",
"Q. c #EAEAEA",
/* pixels */
"                          = 7 @                                                                     ",
"                        + 8 r 9 =                                                                   ",
"                        @ A -.M 8 =             @ 2 .                   $ = .                       ",
"                        @ g 9.s.B w &         * 8 8 X               X 7 8 8 @                       ",
"                        = g +.B ,.I 8 @     + 8 K D @ X X .       X 7 8 d S =                       ",
"                        @ g j r C 5.K 7 X . 6 J s.K 6 7 7 =     . 3 r h { N -                       ",
"                        @ g k I J C 4.S 6 = t <.k.n C I K r . . 2 4 _ +.k r 2                       ",
"                        $ m g | s.J C 4.t 9 *.f.h.,.8.k.1.t X > a *.o.,.C r =                       ",
"                        # J k =.v.a.A L =.5 ,.k.k.k.h.h.>.e q t *.g ` =.M P @                       ",
"                        $ J l B M.n.<.C ;.=.=.k.z.k.k.k.-.t 8 l [ M ,.m :.N *                       ",
"                        + b ` K n.M.d.C -.f.1.k.h.k.k.e.a.>.n ` #.d.,.S d.I @                       ",
"                        + A ` f b.M.4.V <.k.k.g.k.f.h.k.z.y.a.#.q.y.U 2.b.J O                       ",
"                        X C { d z.c.C U h.f.k.k.k.h.k.k.k.k.k.y.k.s.J <.c.C X                       ",
"                        X V } f 8.5.V %.k.k.k.g.f.k.k.k.h.f.k.h.d.4.J z.z.t .                       ",
"                        . r { g 2.A B t.k.k.k.f.k.h.k.f.f.f.e.h.s.A I n.d.8                         ",
"                        . 7 ` _ C C @.k.k.k.f.f.h.h.k.k.f.z.k.f.z.M =.m.8.-                         ",
"                          7 ' { 8 n q.z.k.f.k.k.h.h.g.g.g.g.g.g.z.-.S c.4.$                         ",
"                          , k o.b _ k.z.k.k.f.k.k.h.g.g.g.g.g.g.k.1.A a.L X                         ",
"              . = 9 =     7 m o.` O.f.f.f.k.f.f.k.k.h.g.g.g.g.g.k.k.K 4.C . . = 7 $                 ",
"            . 7 0 < 8 =   7 S } ..:.f.k.f.f.f.h.k.k.g.g.g.g.g.g.k.z.*.A ; . 6 8 r 0 =               ",
"            = r k 6.I e + + t _ ..l d.k.f.f.,.1.h.h.h.k.g.g.g.g.k.k.4.8 * 2 y 2.>.m 8 @             ",
"          @ r 2.1.w.a.S = X 9 j } m a.k.k.d.b v >.p.k.k.g.g.g.g.k.-.V 8 = w K p.0.1.N 7 X           ",
"        . 8 K <.l 1.i.;.t = 7 j [ g s.f.h.>.R W r B p.k.k.k.g.p.-.F T 9 7 V ,.9.@.' <.D = .         ",
"        = A <.B t ;.h %.=.8 y j ..;.f.f.h.*.N.Y.B.u n ,.k.k.k.;.Z F.S.9 8 ;.>.*.=.t -.+.t @         ",
"      X r ;. .r r ;.V B a.K 8 N o.$.z.k.y.L D.U.Y.J.E : ,.h.:.Z F.E.H.e B 1.m S -.7 c +.U , .       ",
"      = K ,.A V v ;.t t @.1.n r j | a.z.t.P H.L.( F.I./ *.h.N C.K.S.J.u ;. .r C -.v 5 m %.b %       ",
"    X r >.k t h s ;.z t m 9.1.b 8 r f p.t.P G.W.K.W / C.2.k.Y ( Q L.P.i =.b V b -.d h 4 =.-.8 X     ",
"    $ N >.t g { A ;.a g r =.0.1.S A V <.t.L F.E.Q.H.e E -.k.Y p ) W.L.u C 1 k n -.d { s v ,.S =     ",
"  . r 6.f c } } s ;.A h s 5 ;.0.s.a.K | u.U V.R.P.! ( ^ ;.h.2.) ) U.J.0 8 m { b -.s ' d 5 B -.8 X   ",
"  o M  .r a  .O.x ;.b d ` c v @.0.h.B 3.u. .! I.P.P.Y.~ %.h.-.) T.R.S.7 c k { b 4.n } b n c ,.S =   ",
"  , >.g C f @.o.x -.b k o.' t a ,.f.I =.z.1.F F.T.W.F.D p.h.,.^ I.E./ r g k o.A -.b O.;.] C B 4.w X ",
"X d +.V _ @.9.o.x 4.d o.#. .V 9 f 9.d ;.k.e.I E S.A.H -.z.h.p.D Z.D.G c ;.#.O.s 4.n #.$.#.k z 7.A = ",
", =.N v +.$.$.o.s 3.d #.+.a 7 8 c -.v ,.h.h.&.v 8 q M p.k.h.h.-.u u m w A @.O.s 3.n #.9.$.} t =.B 7 ",
"r m t r n B #.+.b 2.f :.z = + 4 5 5 a O.e.e.f.<.*.=.a.k.h.h.h.d.-.-.2.= = n +.n =.b O.@.N A 8 V m w ",
"# 7 = $ = 9 b =.b 2.n s $     ; b 5 B o.1.f.f.f.z.y.r.z.z.k.f.k.k.z.m X . - f b U b *.C 8 6 = 7 8 # ",
". @ .     X 3 t C I t =       = m { o.X.` ;.k.k.z.k.k.k.k.k.h.h.z.1.4 .   X ; t B V 4 = X     X $ . ",
"            . = r K 7 X       O c } X.X.` b <.h.z.h.k.k.h.h.z.k.z.-.-       @ r N 7 $ .             ",
"              X 8 A -         . 3 _ o.o.o.h -.k.r.h.r.k.z.k.h.k.a.A +       . 3 A -                 ",
"                # r @           % n [ X.o...o.*.<.k.f.k.k.k.z.w.] 3 .         # r +                 ",
"                X , X           . 4 *.X.o.o.o.h +.p.k.k.k.w.$.o.v %           X = .                 ",
"                  .               = v } ....o.....X.O.#.#.O...k 3 X             .                   ",
"                                  X - f o.................o.' r @                                   ",
"                                    X 8 m } ....X.X...o..._ 1 =                                     ",
"                                      $ 8 b ` o.X.[ o.} g 4 = .                                     ",
"                                        @ - t b M M f c 8 * .                                       ",
"                                          X % 7 3 3 3 & O                                           ",
"                                              . . . .                                               ",
"                                                                                                    ",
"                                                                                                    ",
"                                                                                                    "
};
