/* XPM */
static char *_87a5049beed44f0965e9686f9e44c818vyqYxlVQUUDaNsb[] = {
/* columns rows colors chars-per-pixel */
"50 50 178 2 ",
"   c #030201",
".  c #080704",
"X  c #0C0905",
"o  c #0F0C08",
"O  c #120D06",
"+  c #120F08",
"@  c #1A1207",
"#  c #161109",
"$  c #1B150A",
"%  c #1E180D",
"&  c #211709",
"*  c #241A0B",
"=  c #2A1D0C",
"-  c #251E12",
";  c #2B210E",
":  c #35250F",
">  c #272015",
",  c #2C2313",
"<  c #2E2619",
"1  c #322512",
"2  c #3B2710",
"3  c #362A15",
"4  c #3C2B13",
"5  c #32291A",
"6  c #392E1D",
"7  c #3D311D",
"8  c #3D3220",
"9  c #432E13",
"0  c #443115",
"q  c #4C3415",
"w  c #42341C",
"e  c #513716",
"r  c #6C3D15",
"t  c #7D3716",
"y  c #713B15",
"u  c #7B3916",
"i  c #7B3E19",
"p  c #4B3D25",
"a  c #4D3F29",
"s  c #6C4117",
"d  c #6E4218",
"f  c #72471A",
"g  c #78471C",
"h  c #744A1D",
"j  c #7A4D1F",
"k  c #4E4029",
"l  c #5A4623",
"z  c #54442B",
"x  c #5D4B2B",
"c  c #5E4D31",
"v  c #614E2C",
"b  c #7B4D20",
"n  c #65522E",
"m  c #6A532D",
"M  c #745222",
"N  c #7B5422",
"B  c #7E5925",
"V  c #755A2B",
"C  c #604E32",
"Z  c #645133",
"A  c #6A5536",
"S  c #6E5A34",
"D  c #695638",
"F  c #6D5939",
"G  c #745E34",
"H  c #785B33",
"J  c #735D3B",
"K  c #7E632D",
"L  c #7D6537",
"P  c #7C653A",
"I  c #7D6641",
"U  c #843616",
"Y  c #8B3517",
"T  c #893818",
"R  c #903417",
"E  c #933418",
"W  c #9B3318",
"Q  c #A2321A",
"!  c #AA321A",
"~  c #A53B1F",
"^  c #B4311B",
"/  c #BC311D",
"(  c #C4311E",
")  c #CC311F",
"_  c #D0311F",
"`  c #D43120",
"'  c #DB3221",
"]  c #E53223",
"[  c #E93323",
"{  c #89411C",
"}  c #8C4F24",
"|  c #805725",
" . c #835C26",
".. c #855D28",
"X. c #925326",
"o. c #86642C",
"O. c #8B642B",
"+. c #8E682F",
"@. c #90672E",
"#. c #98632E",
"$. c #936C2E",
"%. c #826132",
"&. c #8D6730",
"*. c #8D6C32",
"=. c #846A3B",
"-. c #8A6E3D",
";. c #966730",
":. c #936C32",
">. c #986F34",
",. c #946F38",
"<. c #8F7033",
"1. c #8D713E",
"2. c #957335",
"3. c #9A7434",
"4. c #9B7837",
"5. c #96713C",
"6. c #9D753A",
"7. c #9B793B",
"8. c #A86632",
"9. c #A07937",
"0. c #A07639",
"q. c #A37C3A",
"w. c #A97F3F",
"e. c #846C44",
"r. c #8F7340",
"t. c #8C7249",
"y. c #937643",
"u. c #957842",
"i. c #9C7D44",
"p. c #907548",
"a. c #967A4B",
"s. c #9B7F51",
"d. c #A27E43",
"f. c #A6813B",
"g. c #AA843D",
"h. c #AF883F",
"j. c #B0893F",
"k. c #9F814E",
"l. c #9D8052",
"z. c #A38145",
"x. c #AC8442",
"c. c #AF8841",
"v. c #A6854A",
"b. c #AA864A",
"n. c #AD8B4C",
"m. c #B18743",
"M. c #B28A42",
"N. c #B88F47",
"B. c #B38F4D",
"V. c #B98F48",
"C. c #B3904F",
"Z. c #BB914A",
"A. c #A38554",
"S. c #AB8A53",
"D. c #AE8E5A",
"F. c #B28F51",
"G. c #B18F5A",
"H. c #B59252",
"J. c #B99556",
"K. c #B5925A",
"L. c #B9965B",
"P. c #BA965A",
"I. c #BC9859",
"U. c #BD995A",
"Y. c #BB985D",
"T. c #BD9A5F",
"R. c #B79560",
"E. c #B99660",
"W. c #BE9A61",
"Q. c #BE9B61",
"!. c #C19D62",
"~. c #C19D64",
"^. c #C19E65",
"/. c #C29E65",
"(. c #C39F66",
"). c #C4A065",
"_. c #C4A067",
"`. c #C6A268",
/* pixels */
". O o . # @ % , w w 7 , * O X .       . . X . . o X X .             . X X O + o o O o O + + O o o . ",
"v u.r.5.u.k.z.v.n.n.n.v.v.u.5.L L L -.=.=.1.1.1.1.M =.=.G G G G P L =.e.a.a.1.p.p.p.p.a.a.a.s.s.s.z ",
"L J.C.C.H.C.C.C.C.C.C.C.F.C.C.C.H.C.H.C.H.H.H.H.n.+.n.Q.^.^.Q.^.^.^./.^.`.Y.H.H.C.C.B.H.N.H.!.!.^.J ",
"=.H.C.C.H.H.J.J.I.H.H.C.C.C.C.C.C.C.C.C.B.B.H.H.n.&.v.K.J.K.K.K.H.K.K.K.K.H.B.B.C.B.B.H.F.G.!.J.F.C ",
"i.C.F.Q.^.^._.^.)./.Y.Y.Q.Y.Y.I.C.I.Y.Q.Y.Q.Q.Q.^.,.b.H.B.B.B.B.C.C.B.C.C.C.C.C.C.C.B.J.^.^.^.G.H.n ",
"n.C.K.^._._.^._.^._._._.`.`._._.H.).`.`._.`.^.Q.K.%.y.S.K.J.Y.I.I.Y.I.I.I.I.J.H.I.P.I.^././.^.F.B.m ",
"v.F.H.Q.).).k.x x n Z A F Z n A n S F F x a 8 6 - o # % 8 z F e.P J F Z Z Z l w z m H -.G.(.^.B.F.P ",
"a.H.C.H.Y._.v * q 0 0 ; & $ @ @ @ @ # @ * = : 4 9 q q 0 4 2 * & * * * = ; ; : : $     9 5.(.^.B.F.P ",
"k.C.C.H.Q._.n :  .o. .$.4.4.4.4.$.+.o.+.$.$.$.>.>.$.$.3.>.3.9.3.4.4.4.f.q.f.f.3.B :   2 5.^.P.F.H.I ",
"l.C.C.H.Q._.L ;  . .3.h.j.N.j.j.M.j.j.M.j.j.j.j.M.c.M.j.h.h.j.M.M.j.j.j.j.j.N.j.3.B @ 2 5.^.K.C.J.I ",
"n.H.C.H.I.J.n * B $.h.h.j.j.j.j.j.j.j.j.j.j.M.j.h.j.M.j.j.j.j.j.h.M.M.c.j.j.j.j.M.4.$ 9 5.`.K.C.I.I ",
"K.C.C.n.C.v., O M 3.j.j.M.j.M.M.j.M.j.M.M.M.M.j.M.j.j.M.M.M.j.j.h.M.h.c.j.j.j.j.M.2.O e >.S.x.v.d.m ",
"K.F.F.F.F.H.z X M $.j.j.j.j.M.j.M.M.M.Z.N.N.N.N.N.N.N.Z.Z.Z.Z.N.M.Z.M.c.c.M.M.c.M.2.# m 7.2.,.:.5.m ",
"S.F.F.F.C.J.v X h $.j.j.j.j.j.j.j.j.c.Z.Z.Z.Z.Z.Z.Z.Z.Z.Z.Z.Z.Z.Z.Z.Z.N.M.M.c.c.M.4.# L C.K.n.C.Y.I ",
"k.H.F.H.C.J.J O M $.h.j.M.j.M.M.c.c.N.Z.Z.Z.Z.Z.Z.Z.Z.Z.Z.Z.Z.Z.Z.Z.Z.Z.Z.Z.Z.M.M.4.O S C.K.F.F.Y.Z ",
"A.^.Y.P.F.J.S # N O.h.h.j.M.N.N.Z.Z.Z.Z.Z.Z.Z.Z.Z.N.Z.Z.Z.Z.Z.Z.Z.Z.Z.Z.Z.Z.Z.Z.M.4.$ V C.J.B.F.Y.a ",
"A._.`.K.B.J.v & N O.h.M.M.M.Z.Z.Z.Z.Z.Z.Z.Z.Z.V.N.x.V.V.V.V.Z.Z.Z.Z.Z.Z.Z.V.N.M.M.2.# =.H.I.H.F.R.6 ",
"t.).`.K.C.J.Z $ B O.h.j.x.M.Z.Z.Z.Z.Z.Z.Z.Z.Z.Z.V.V.V.d.N.V.Z.Z.Z.Z.Z.Z.Z.m.x.j.j.K # u.H.K.H.H.D.< ",
"e._.`.Y.B.H.p =  .O.h.h.M.Z.Z.Z.Z.Z.Z.Z.Z.Z.Z.V.Z.V.Z.V.Z.Z.Z.Z.Z.Z.J.Z.Z.Z.N.M.x.V $ v.H.I.C.C.D.- ",
"e.Q.Y.K.H.n.7 &  .O.h.j.N.Z.Z.Z.Z.Z.Z.Z.Z.m.B.m.N.V.x.d.0.0.>.;.:.;.@.0.Z.Z.Z.V.M.V $ i.H.P.C.K.D.- ",
"=.H.C.C.C.v.- @ N O.g.j.M.M.N.Z.Z.Z.Z.Z.Z.N.B.N.V.d.g u T T T T U t r r 0.Z.Z.Z.N.V % k.B.Q.P.Q.G.- ",
"t.T.Q.K.C.n.- @ B O.g.j.j.j.m.m.Z.Z.Z.Z.Z.Z.Z.Z.Z.;.U ^ ` ` ` ` ` / R y ..V.Z.Z.Z.V % z.H._._._.G.- ",
"1.J.Q.T.C.n.1 @ B ..g.j.g.d.d.M.Z.Z.Z.Z.Z.Z.Z.Z.m.} W ' [ [ [ [ [ [ ( t b N.Z.Z.Z.l ; v.H.Y.L._.R.- ",
"z.C.H.K.C.n.5 @ B O.q.M.m.V.Z.Z.Z.Z.Z.Z.N.N.c.x.:.r R ) [ [ [ [ [ [ ` Y b m.M.M.M.0 w F.H.C.F.Q.G.- ",
"n.H.F.Q.H.K.< & B O.j.Z.Z.Z.Z.Z.Z.Z.N.6.| M h d r r u W ' [ [ ] ] [ ' E j m.N.M.g.; x H.F.B.B.Y.R.- ",
"C.C.H.Q.^.E.> =  .O.w.M.N.Z.Z.Z.Z.x.| s r u U U t u T / ] ] [ [ [ [ _ Y j m.Z.Z.g.; x Z.H.B.H.^.E.6 ",
"B.C.C.T.).E.> *  . .q.m.m.Z.Z.V.w.b r U Q / ) ` ) ( _ ] [ [ ] ] [ [ _ Y b m.V.m.g.; x C.H.H.F.Q.E.8 ",
"B.C.C.H.^.E.- &  . .6.j.m.N.m.6.h y Y / ] [ [ [ [ [ [ [ [ ] / / ' ] / t b M.N.M.g.; v H.H.B.F.F.A.- ",
"B.B.F.H.).E.- *  . .3.j.M.m.q.h r T ( ] [ [ [ ] [ [ [ ] [ ( T U W Q Y r N N.Z.Z.M., l H.H.F.B.J.S.- ",
"x.B.F.F.Q.K.< &  ...3.j.Z.V.&.r u ^ ] [ [ ' / ^ / ' [ [ ] ( t r y y y g >.Z.Z.N.x.1 w H.B.b.n.T.G.5 ",
":.&.>.:.,.,.3 =  ...3.M.M.x. .r R _ [ [ ] Q } #.X.~ ' [ [ ` Y d B +.q.x.N.Z.Z.N.h.3 4 2.>.:.;.5.-.- ",
"B.b.d.b.K.T.a =  . .7.M.c.x.O.r E _ [ [ ( { w.N.N.8.( [ [ ' W g x.Z.Z.c.c.c.M.M.h.4 7 K.G.n.n.E.S.- ",
"B.B.H.H.^._.a ;  . .w.j.j.h.O.r R ' [ [ ( T 6.x.M.8./ [ [ ] W f d.Z.Z.V.h.M.j.j.j.0 7 ^.Y.C.H.Q.G.- ",
"B.B.B.J.^._.k :  .O.g.j.j.N.6.d T ` [ [ ' Q g b } ~ ` [ [ ` Y b x.V.Z.m.M.M.j.M.j.w 8 Q.I.H.K._.D.- ",
"B.C.H.H.^._.k :  .O.h.M.Z.Z.M.b t ^ ] [ [ ' ^ ! ^ ` [ [ ] / t N V.Z.V.m.M.c.M.M.h.3 z _.J.C.C.J.d.# ",
"C.C.B.K.I.H.7 ;  .$.j.j.M.Z.Z.&.r R ( ] [ [ [ [ [ [ [ [ ) E y &.N.Z.Z.Z.N.N.N.M.g.; z _.H.C.F.C.u.@ ",
"C.C.C.H.H.n., &  .3.M.x.N.Z.B.q.N r R ( ] [ [ [ [ [ ] ( R y b x.V.Z.Z.Z.Z.V.V.M.f.; z _.K.C.S.C.i.* ",
"C.C.B.C.C.v.* & B 7.M.M.Z.Z.V.x.6.f r T Q ) _ _ ` ( ! T y g q.Z.Z.V.V.N.m.M.M.M.g.; C _.^.I.I.C.i.* ",
"C.C.C.C.C.n., $ | q.x.N.Z.Z.Z.V.x.6.N r y t U Y U t y r M 0.Z.Z.Z.Z.V.V.Z.N.M.c.g.; A _._._.Y.H.7.= ",
"C.C.C.C.C.n., $  .h.x.N.V.Z.Z.Z.Z.N.x.O.N f f f f f g  .w.M.V.Z.Z.Z.Z.Z.Z.Z.M.M.g.; A _._.`.Y.C.d.4 ",
"C.C.C.C.F.B., * o.g.j.j.N.m.Z.Z.Z.Z.M.N.C.x.x.x.x.x.c.N.Z.Z.Z.Z.Z.Z.Z.Z.Z.Z.Z.j.f.% A `._._.P.C.d.q ",
"C.C.C.C.B.B., *  .g.j.j.j.N.Z.Z.Z.Z.Z.Z.Z.Z.Z.Z.Z.Z.Z.Z.Z.Z.Z.Z.Z.Z.Z.Z.Z.Z.Z.Z.7.$ A _._.).J.F.d.9 ",
"C.C.C.C.C.n., : O.g.j.j.j.N.Z.Z.Z.Z.Z.Z.Z.Z.Z.Z.Z.Z.Z.N.Z.N.N.N.Z.Z.Z.N.M.M.j.j.f.; Z I.I.^.P.F.v.1 ",
"B.C.C.C.C.k.$ 3 O.f.j.j.j.M.M.M.M.M.N.Z.Z.Z.Z.Z.Z.Z.Z.Z.Z.Z.Z.Z.Z.N.j.j.j.j.N.j.g.; Z C.H.Q.J.C.v., ",
"B.B.B.C.H.u.X : O.h.j.j.M.j.j.M.M.M.N.Z.Z.Z.Z.Z.Z.Z.Z.Z.Z.Z.Z.Z.Z.N.h.j.j.j.j.j.f.; Z H.F.I.P.H.v., ",
"n.B.C.C.H.5.X : $.j.M.M.j.M.M.j.j.M.M.N.Z.Z.Z.Z.Z.Z.Z.Z.Z.Z.Z.Z.Z.Z.M.j.N.j.j.j.f.% D J.F.H.J.F.n.0 ",
"n.H.H.H.H.i.# : O.j.j.j.j.j.j.j.j.j.M.j.N.N.Z.N.Z.N.Z.N.N.N.N.N.N.N.M.j.M.j.j.j.f.; k F.C.K.J.F.n.w ",
"n.Q.^.Y.B.v.% : $.j.M.j.M.M.j.M.M.j.j.M.h.c.c.c.h.M.M.c.M.j.j.j.j.j.M.j.j.M.j.j.h.l . 7 -.n.^.^.S.1 ",
"D.^.`.Q.Q.W.< 5 f.c.h.h.h.h.h.M.h.M.M.j.j.j.M.j.h.j.j.h.h.c.M.j.j.j.h.h.j.M.j.j.M.*.$ 3 % < P _.S.; ",
"v.Y.A.c k I < ; K 2.2.*.2.f.g.h.h.h.j.M.j.g.2.<.<.<.<.<.<.<.<.<.2.4.f.g.h.j.j.M.M.K , L n , $ I e.# "
};
