/* XPM */
static char *_16b7da19efe49bdaaf8726ea97a0be22SY0NNMLinRvqV9G[] = {
/* columns rows colors chars-per-pixel */
"50 50 195 2 ",
"   c black",
".  c #0E0000",
"X  c #0A0900",
"o  c #130200",
"O  c #190500",
"+  c #150800",
"@  c #1B0A00",
"#  c #151000",
"$  c #1E1200",
"%  c #220300",
"&  c #220C00",
"*  c #290E00",
"=  c #231300",
"-  c #291300",
";  c #271900",
":  c #2D1C01",
">  c #2E1F0B",
",  c #321200",
"<  c #331D01",
"1  c #252000",
"2  c #2D2200",
"3  c #332303",
"4  c #3B2501",
"5  c #3D2A04",
"6  c #35240E",
"7  c #3C240C",
"8  c #3E2A0D",
"9  c #362710",
"0  c #362812",
"q  c #3D2D11",
"w  c #442A02",
"e  c #492C02",
"r  c #412F0B",
"t  c #483405",
"y  c #45310B",
"u  c #4B3509",
"i  c #48380B",
"p  c #50360A",
"a  c #472510",
"s  c #492815",
"d  c #473110",
"f  c #4A3411",
"g  c #4B3A1D",
"h  c #543B13",
"j  c #52321C",
"k  c #523E1D",
"l  c #583F1D",
"z  c #4D3D21",
"x  c #5A4314",
"c  c #5C451E",
"v  c #58481D",
"b  c #63491D",
"n  c #5D4423",
"m  c #56462C",
"M  c #5E4A29",
"N  c #5A4A31",
"B  c #595037",
"V  c #644D23",
"C  c #6C4E23",
"Z  c #654C2C",
"A  c #6F4F2D",
"S  c #615224",
"D  c #66522C",
"F  c #6B5229",
"G  c #745224",
"H  c #6C4F34",
"J  c #655332",
"K  c #6A5432",
"L  c #6E5837",
"P  c #675439",
"I  c #6A543D",
"U  c #70543A",
"Y  c #725C3C",
"T  c #766036",
"R  c #7D6437",
"E  c #75613C",
"W  c #7D693F",
"Q  c #5D4E40",
"!  c #6B5642",
"~  c #735543",
"^  c #755A41",
"/  c #776142",
"(  c #7B6445",
")  c #7F6A43",
"_  c #7B634A",
"`  c #7E6849",
"'  c #786953",
"]  c #8A6929",
"[  c #916E2F",
"{  c #846534",
"}  c #886733",
"|  c #8A6E32",
" . c #836639",
".. c #84693B",
"X. c #926C34",
"o. c #986E3D",
"O. c #89763B",
"+. c #937335",
"@. c #947837",
"#. c #826E46",
"$. c #8B6D41",
"%. c #836B4A",
"&. c #8F7541",
"*. c #85714E",
"=. c #8B744C",
"-. c #947544",
";. c #947B45",
":. c #9C7947",
">. c #91734A",
",. c #947B4D",
"<. c #9E7B48",
"1. c #837455",
"2. c #8B7453",
"3. c #8C7A52",
"4. c #8D7B5D",
"5. c #917755",
"6. c #957D5C",
"7. c #A47D44",
"8. c #9C813E",
"9. c #9D834D",
"0. c #8C8151",
"q. c #938653",
"w. c #9C8355",
"e. c #938059",
"r. c #9D855C",
"t. c #9F8A5C",
"y. c #A48445",
"u. c #AA8644",
"i. c #AD8A41",
"p. c #AD864D",
"a. c #A4894D",
"s. c #AD8D4C",
"d. c #B0874E",
"f. c #B78D48",
"g. c #B28D4D",
"h. c #AE914C",
"j. c #B1914E",
"k. c #BA954F",
"l. c #A38452",
"z. c #A98650",
"x. c #A58C55",
"c. c #AD8C53",
"v. c #A5855D",
"b. c #A68C5B",
"n. c #AB8E5B",
"m. c #B38E53",
"M. c #BA8F52",
"N. c #B38D5A",
"B. c #B88E5B",
"V. c #AC9156",
"C. c #AD925C",
"Z. c #B49253",
"A. c #BA9355",
"S. c #BC9955",
"D. c #B4935B",
"F. c #BA955B",
"G. c #B49B5D",
"H. c #BC9A5D",
"J. c #BEA15C",
"K. c #9B8A61",
"L. c #A38F65",
"P. c #AA8E60",
"I. c #A59363",
"U. c #AD9362",
"Y. c #A89866",
"T. c #A5936A",
"R. c #AA9469",
"E. c #B39562",
"W. c #BA9661",
"Q. c #B59A63",
"!. c #BB9B63",
"~. c #B3976A",
"^. c #B49A6B",
"/. c #BC9D6C",
"(. c #B49C71",
"). c #BC9F71",
"_. c #BB9F78",
"`. c #BCA165",
"'. c #B7A26B",
"]. c #BEA36C",
"[. c #BEA272",
"{. c #BBA57B",
"}. c #C79757",
"|. c #C29C5C",
" X c #C89B59",
".X c #C2A25C",
"XX c #C19C62",
"oX c #C19D6A",
"OX c #C29F70",
"+X c #C8A267",
"@X c #C4A26B",
"#X c #CBA56B",
"$X c #C1A776",
"%X c #C4A475",
"&X c #C8A671",
/* pixels */
"X # O o = $ 1 2 i t e 4 : & O + o . o o + O O + O @ @ + . o o . . o o + O @ O @ @ & @ @ @ @ @ O @ . ",
"B 1.2.>.6.0.0.q.b.b.v.v.6.2.#.) W ) ) ) ` %.*.*.2.Y ( ` / Y Y ^ _ _ ` *.3.3.3.=.2.2.5.6.6.6.K.4.4.N ",
"R ~.N.z.D.G.C.G.s.g.m.B.E.E.V.V.V.C.C.C.C.D.U.D.x.{ x./.[.^././.]./.`.].].G.D.V.N.N.N.N.z.n.`.].{.E ",
"} E.d.}.A.A.V.Z.}.A.M.M.N.c.s.h.h.Z.D.Z.V.V.Z.D.V.] a.D.D.D.Q.D.m.Z.D.A.A.h.j.Z.Z.m.m.F.Z.A.H.S.b.n ",
":.m.f.}.|.|.@X@XXX|.|.F.G.`.G.J.V.F.!.Q.F.H.!.!.XX| z.Z.Z.c.m.z.m.m.Z.j.h.Z.j.Z.Z.z.c.F.|.|..Xj.E.0 ",
"g.j.}. X|.oX[.^.].oXoX%X[.[.'.'.U./.%X%X%X%X)./.E.{ -.l.U.E.Q.)./.Q.E.E.Q.Q.F.c.Q./././.`.J.J.h.V.c ",
"8.h.k. X`.[.3.D V C A K J J J K K L L K M k d w < @ & < f n L %._ ^ U H H Z Z j l Z U 2.n.`.`.V.n.R ",
"8.j.g.Z.Q.[.J                                                                       O a =.'.].x.C.R ",
"9.n.N.B.OX_.Z                                                                       O 7 >./.Q.V.U...",
"9.D.N.B.W.{._                                                                       , s >.oXW.c.E...",
"h.g.f.M.S.G.K                                                                       , a -.!.A.c.Q...",
"h.i.f.i.h.9.4                                                                       % j -.j.i.u.<.G ",
"h.j.S.f.j.C.g                                                                       * I ;.@.] [ -.C ",
"a.h.p.f.h.G.P                                                                       - ^ C.V.j.j.Q. .",
"a.F.d.F.V.U.!                                                                       * ~ C.Z.j.m.~.Z ",
"l.oXXXB.Z.^.I                                                                       * ~ D.A.p.D.(.k ",
"l.@X@Xz.h.Q.J                                                                       & %.B.A.m.n.(.5 ",
"&.].&XZ.h.D.M                                                                       - 5.F.F.A.N.T.3 ",
"..].@XF.Z.C.v                                                                       - r.N.A.Z.D.L.; ",
"| !.F.D.Z.V.8                                                                       - K.m.A.Z.C.T.: ",
"| F.D.Z.s.l.:                                                                       - w.N.F.H.Q.T.: ",
"| Q.Q.D.s.x.<                                                                       : e.Z.H.|.].T.2 ",
"@.F.|.F.Z.b.6                                                                       4 t.V.H.S.].T.: ",
"8.j.m.F.Z.n.6                                                                       t I.V.S.s.H.R.2 ",
"h.j.Z.XXZ.C.6                                                                       S I.a.A.g.F.R.3 ",
"h.j.m.F.!.^.6                                                                       v Y.Z.A.Z.@X(.y ",
"h.j.A.XX+X^.:                                                                       S I.V.m.g.F.R.y ",
"h.j.m.m.XX~.;                                                                       V U.E.M.Z.D.r.: ",
"g.Z.m.D.@X^.:                                                                       x U.W.d.s.F.T.3 ",
"y.s.M.B.H.C.9                                                                       p b.N.p.c.Q.t.3 ",
"] [ X.X.+.&.9                                                                       e :.o.X.| O.3.; ",
"j.p.7.p.D.E.m                                                                       e P.N.s.a.Q.r.2 ",
"g.j.A.M.J.[.z                                                                       e ).W.m.Z.!.T.2 ",
"h.j.m.Z..X[.v                                                                       u [.W.A.Z.`.T.2 ",
"g.j.m.A.J.].z                                                                       h [.D.m.Z.Q.6.= ",
"j.g.m.A.S.U.q                                                                       x [.Z.g.d.D.3.& ",
"j.j.m.Z.j.x.2                                                                       b ).D.m.m.c.6.: ",
"j.Z.f.A.s.a.:                                                                       V [.!.|.A.N.,.: ",
"g.j.m.m.j.x.2                                                                       F [.@X+XF.Z.,.< ",
"g.Z.m.m.Z.V.3                                                                       F ).@X+XS.V.9.w ",
"Z.s.Z.m.h.V.6                                                                       F $XoXoXA.Z.9.t ",
"Z.m.A.m.h.V.3                                                                       F ).@X#XA.m.9.w ",
"g.m.Z.d.h.x.3                                                                       V ~.F.oXA.n.l.5 ",
"g.Z.m.m.Z.9.;                                                                       C R.F.XXA.V.w.3 ",
"m.Z.m.m.Z.O.@                                                                       F b.c.W.A.F.w.4 ",
"s.s.m.m.A.O.+                                                                       F ).N.m.A.n.b.t ",
"p.m.F.F.Z.;.=                                                                       h n.B.B.H.c.b.i ",
"j.W.XXF.V.w.;                                                                       & 5 $.n.!.].t.5 ",
"Z.!.%XOX^.R.0                                                                       = 6 - r T {.K.4 ",
"y.Q.l.b x W 6                                                                       4 ' Q > : E 1.= "
};
