/* XPM */
static char *_177d9e515e14913d9f521babb56fe5c2nAjL986hnGrN3M8[] = {
/* columns rows colors chars-per-pixel */
"50 50 193 2 ",
"   c #000000",
".  c #0B0303",
"X  c #130403",
"o  c #1C0604",
"O  c #160805",
"+  c #1A0A05",
"@  c #230603",
"#  c #290603",
"$  c #230A06",
"%  c #2A0E05",
"&  c #340703",
"*  c #350A06",
"=  c #3C0B05",
"-  c #2B1208",
";  c #331106",
":  c #3A1106",
">  c #351409",
",  c #3A1408",
"<  c #420E06",
"1  c #4A0C06",
"2  c #550D05",
"3  c #5A0D06",
"4  c #560E09",
"5  c #5F0F0A",
"6  c #431406",
"7  c #4F1207",
"8  c #4C1807",
"9  c #451608",
"0  c #42190A",
"q  c #4B190A",
"w  c #531507",
"e  c #5C1307",
"r  c #581E07",
"t  c #571508",
"y  c #501A08",
"u  c #5B1B09",
"i  c #640F07",
"p  c #6E0E05",
"a  c #661207",
"s  c #6B120C",
"d  c #6B1D09",
"f  c #711607",
"g  c #7A1006",
"h  c #76130D",
"j  c #7D140B",
"k  c #612008",
"l  c #6E230A",
"z  c #622C0D",
"x  c #72220B",
"c  c #7B270B",
"v  c #7E2908",
"b  c #7D340F",
"n  c #7D4C11",
"m  c #776D10",
"M  c #851207",
"N  c #861709",
"B  c #941407",
"V  c #9B1306",
"C  c #911C08",
"Z  c #9C190A",
"A  c #A01406",
"S  c #AD1606",
"D  c #A21B0B",
"F  c #AE1B09",
"G  c #BB1706",
"H  c #B51C07",
"J  c #BB1C0B",
"K  c #892507",
"L  c #84250A",
"P  c #872A09",
"I  c #8A290B",
"U  c #942B0B",
"Y  c #9A2808",
"T  c #992E08",
"R  c #80380E",
"E  c #9B320B",
"W  c #993A0C",
"Q  c #AB2A06",
"!  c #A32408",
"~  c #AD2709",
"^  c #A12B0B",
"/  c #A92C08",
"(  c #B32C06",
")  c #B82D06",
"_  c #B42308",
"`  c #B92408",
"'  c #B02808",
"]  c #A83707",
"[  c #A4350C",
"{  c #B13006",
"}  c #BA3B07",
"|  c #B33309",
" . c #B9350A",
".. c #C41504",
"X. c #CD1603",
"o. c #C31C07",
"O. c #CD1806",
"+. c #C01B08",
"@. c #D21604",
"#. c #D91704",
"$. c #D31C07",
"%. c #DD1C0C",
"&. c #E81703",
"*. c #E41B05",
"=. c #EB1C05",
"-. c #F51C05",
";. c #FE1B01",
":. c #C32507",
">. c #CD2307",
",. c #CD2E0A",
"<. c #D52306",
"1. c #D02807",
"2. c #DD2D06",
"3. c #D82608",
"4. c #C6320B",
"5. c #CE3B09",
"6. c #DC3306",
"7. c #D93807",
"8. c #DB3B07",
"9. c #D43D08",
"0. c #EC2105",
"q. c #E62805",
"w. c #E52A08",
"e. c #EE2808",
"r. c #F52503",
"t. c #FE2401",
"y. c #F32B06",
"u. c #FF2C01",
"i. c #E43C04",
"p. c #EC3B05",
"a. c #ED3408",
"s. c #E4380A",
"d. c #F43504",
"f. c #FF3101",
"g. c #FE3302",
"h. c #FE3401",
"j. c #FE3601",
"k. c #FE3402",
"l. c #F43F05",
"z. c #FF3C01",
"x. c #FE3D01",
"c. c #FF3F01",
"v. c #F93805",
"b. c #98470C",
"n. c #96490D",
"m. c #8E530F",
"M. c #8A6512",
"N. c #8F6D11",
"B. c #8D7410",
"V. c #987210",
"C. c #987711",
"Z. c #A2670E",
"A. c #AB760D",
"S. c #AC7C0D",
"D. c #C64006",
"F. c #CF4008",
"G. c #D44306",
"H. c #DB4306",
"J. c #E44405",
"K. c #EB4306",
"L. c #E54804",
"P. c #EC4A04",
"I. c #F44204",
"U. c #FF4101",
"Y. c #FE4301",
"T. c #FE4701",
"R. c #FF4B00",
"E. c #FE4A01",
"W. c #FF4D01",
"Q. c #FF5001",
"!. c #988B12",
"~. c #AE880D",
"^. c #B58F0A",
"/. c #B4900F",
"(. c #AC8811",
"). c #BEA60E",
"_. c #C5A50D",
"`. c #CCB30A",
"'. c #E4BD0B",
"]. c #DCC10A",
"[. c #D7C80C",
"{. c #EBC707",
"}. c #EAC90A",
"|. c #E3D30A",
" X c #ECD108",
".X c #F3D405",
"XX c #FFD204",
"oX c #F2D906",
"OX c #FEDB02",
"+X c #F4D90B",
"@X c #F6E405",
"#X c #FFE401",
"$X c #FFE901",
/* pixels */
"                                                        .                                           ",
"                                                                                                    ",
"                                                          > +                                       ",
"                                                        . [ ^ O                                     ",
"                                                        O 5.v.L .                                   ",
"                              $ q .                     - s.g.a.7                                   ",
"                              > s.^ $                   u v.u.u.:.O                                 ",
"                              > a.k._ o               . U g.g.t.u.s                                 ",
"                              0 d.t.t.Z .             + ,.u.x.g.t.>.o                               ",
"                          .   L u.t.t.e.4   .         q e.u.Y.Y.g.r.s             .                 ",
"                            > 6.t.t.t.t.F X         . ^ t.k.Y.R.Y.u.H X                             ",
"                          - 4.u.t.t.t.;.=.*         > w.t.x.R.W.R.k.0.=           .                 ",
"          . .           +  .t.;.;.k.k.t.;.s       . ^ ;.v.Y.W.Q.T.x.t.M         . c $               ",
"          , I .         x u.t.;.u.Y.x.t.;.B     . l r.t.x.T.Q.Q.Q.Y.u.+.O       , s.j               ",
"          I v.d       O 4.t.;.u.Y.Y.Y.g.;.S X $ c e.u.x.T.Q.Q.Q.Q.Y.k.=.*     . T u.1.+             ",
"        . } k.1.$     q e.t.t.x.z.x.Y.Y.g.*.` 3.r.g.x.Y.R.Q.Q.Q.Q.Y.k.;.5     x d.k.v.a             ",
"        $ 8.u.u.f     I u.;.k.x.x.Y.Q.Y.x.u.;.;.k.Y.Y.x.W.Q.Q.Q.W.R.g.t.B + c a.k.Y.z.! .           ",
"        , K.k.u.:.X O ,.t.t.x.Y.T.Q.Q.T.Y.x.k.k.Y.Y.Y.Y.W.Q.Q.Q.R.T.z.;.q.,.v.x.x.Y.x.2.$           ",
"        q I.x.g.y.1 y y.;.k.Y.T.Q.Q.Q.Q.T.x.Y.Y.Y.Y.Y.x.R.Q.Q.Q.R.T.x.t.t.k.Y.Y.Y.Y.Y.v.e           ",
"        q R.T.x.u._ 4.t.t.x.x.R.Q.Q.Q.Q.R.x.x.Y.x.k.x.Y.R.W.Q.Q.R.Y.x.x.x.Y.x.x.x.R.W.Y.C           ",
"        8 I.R.R.k.u.t.t.u.x.Y.Y.W.R.W.W.R.Y.Y.x.g.;.;.u.z.x.T.Y.Y.Y.Y.Y.Y.x.Y.T.W.W.W.T.:..         ",
"        9 I.T.R.R.g.t.t.u.x.x.Y.I.p.i.i.p.x.g.t.;.;.;.;.;.t.u.u.u.g.u.g.x.x.T.W.Q.Q.R.T.2.@         ",
"        * J.R.Q.R.T.g.u.t.g.d.| b.Z.S.A.Z.W G ;.;.;.;.;.;.;.&.@.X.#.-.;.g.Y.T.R.Q.Q.Q.T.y.=         ",
"        + 9.T.Q.W.R.T.z.u.r.I (.{.OX#X#XOX'.M.Z ;.;.;.;.-.D m.~.^.(.n.J u.Y.Y.T.Q.Q.Q.R.d.7         ",
"        . | T.R.Q.Q.W.Y.u.F N.XXOX#X@X[.oXOX'.z &.;.;.;.G M..XoX$X#X}.n <.x.x.Y.T.R.R.x.v.t         ",
"          L Y.R.Q.W.W.x.u.D C.XXOX#X|.m ].OX_.x -.;.;.;.S B.+X!.[.$XOXM.o.g.Y.Y.x.Y.x.x.v.w         ",
"          9 l.x.R.T.T.k.u.q.b ^.{. X.X X].^.R $.;.;.t.;.-.I C.).`._.V.U r.u.g.Y.x.Y.Y.x.d.:         ",
"          O 5.x.x.Y.x.k.g.u.q.~ T b.b.b.E _ 0.t.t.;.t.t.t.r.>.` ' _ >.r.u.u.g.k.Y.x.x.x.7.$         ",
"            I Y.x.Y.x.k.g.g.u.u.u.r.r.r.t.u.t.t.t.t.t.t.t.t.t.t.u.u.u.u.u.g.g.k.x.x.x.x./ .         ",
"            , K.x.x.x.x.x.g.g.g.u.u.g.u.u.u.u.t.t.u.u.u.u.u.u.u.u.u.u.u.g.k.g.k.z.z.x.I.t           ",
"            . T Y.Y.x.x.x.g.g.g.k.u.u.g.g.u.g.u.u.u.u.u.u.u.u.u.g.g.k.g.z.g.x.k.Y.x.x.{ X           ",
"              % 9.T.Y.Y.x.x.z.x.x.d.s.d.k.k.u.g.g.g.g.k.k.k.k.k.g.x.g.g.z.z.x.x.x.Y.8.:             ",
"                8 J.T.Y.x.x.Y.x.x.v.| L ~ 6.l.k.x.k.k.x.x.g.x.g.x.k.x.Y.x.x.Y.Y.T.i.y               ",
"                  y H.R.T.T.Y.Y.Y.x.x.7.U d d N Y Q ( ( ( ) l.z.x.x.x.x.Y.T.T.T.9.9                 ",
"                    : | R.R.R.T.T.Y.T.T.Y.l.7.( Y K K K K / I.x.T.x.R.T.T.R.K.E $                   ",
"                      O l 5.R.T.T.R.T.R.T.T.T.T.T.T.T.T.T.T.T.T.T.T.R.R.K.[ 0 .                     ",
"                          + k | J.W.W.R.R.W.R.R.T.R.R.T.R.R.R.R.R.J.} c ; .                         ",
"                              . % r P ] 5.H.J.K.P.P.L.L.G.5.] v r % .                               ",
"                                    X 7 = 6 < < 9 6 : = & = 1 w o                                   ",
"                                  . B -.&.#.@.........X.#.*.X.=.Z X                                 ",
"                                  3 -.&.p S ;.;.;.;.;.;.;.-.i B -.Z X                               ",
"                                o O.;.M   B ;.;.;.;.;.;.;.-.4 . V ;.D X                             ",
"                                3 -.F o   A ;.;.;.;.;.;.;.-.i   X B $.<                             ",
"                                o 4 o     A ;.;.;.;.;.;.;.-.s     . @                               ",
"                                          V ;.;.;.@...;.;.-.h                                       ",
"                                          B ;.;.-.3 # #.;.-.j                                       ",
"                                          M ;.;.%.& . S ;.-.j                                       ",
"                                          g ;.;.J X   p ;.;.M                                       ",
"                                          2 &.*.s     # O.*.i                                       ",
"                                          . & & .       @ & .                                       "
};
