/* XPM */
static char *_9ed11eb09e94616866ec58414d2248dFvFui2Y93E0O0CoB[] = {
/* columns rows colors chars-per-pixel */
"50 50 135 2 ",
"   c #6E4100",
".  c #734405",
"X  c #76480A",
"o  c #7B4D0C",
"O  c #7E510C",
"+  c #82560E",
"@  c #835513",
"#  c #875A14",
"$  c #895C16",
"%  c #875A1A",
"&  c #8B5E1B",
"*  c #8E611C",
"=  c #92631E",
"-  c #8C5E20",
";  c #8E6121",
":  c #936523",
">  c #966925",
",  c #996C26",
"<  c #956729",
"1  c #966929",
"2  c #9B6D2B",
"3  c #9E712D",
"4  c #9D6F31",
"5  c #9E7131",
"6  c #A1742E",
"7  c #A37532",
"8  c #A67935",
"9  c #A97C36",
"0  c #A57739",
"q  c #A6783A",
"w  c #AA7D3B",
"e  c #AD7F41",
"r  c #AE813D",
"t  c #B1833E",
"y  c #AE8141",
"u  c #B38543",
"i  c #B68945",
"p  c #B98C46",
"a  c #B58749",
"s  c #B68949",
"d  c #BB8D4B",
"f  c #BC9047",
"g  c #BE914D",
"h  c #BC8E50",
"j  c #BF9151",
"k  c #C09046",
"l  c #C1944E",
"z  c #C6994F",
"x  c #C89A4F",
"c  c #C09050",
"v  c #C09350",
"b  c #C29250",
"n  c #C39351",
"m  c #C09352",
"M  c #C29252",
"N  c #C39353",
"B  c #C19451",
"V  c #C39450",
"C  c #C19453",
"Z  c #C29552",
"A  c #C49551",
"S  c #C49452",
"D  c #C59553",
"F  c #C19355",
"G  c #C29554",
"H  c #C29456",
"J  c #C39557",
"K  c #C49454",
"L  c #C59555",
"P  c #C49754",
"I  c #C69654",
"U  c #C79755",
"Y  c #C49756",
"T  c #C69656",
"R  c #C79757",
"E  c #C39652",
"W  c #C59855",
"Q  c #C69956",
"!  c #C79A57",
"~  c #C69954",
"^  c #C89856",
"/  c #C99957",
"(  c #C99B56",
")  c #C49658",
"_  c #C59759",
"`  c #C69958",
"'  c #C79A59",
"]  c #C6985A",
"[  c #C7995B",
"{  c #C7995A",
"}  c #C89858",
"|  c #C99959",
" . c #C89B58",
".. c #CA9A58",
"X. c #CB9B59",
"o. c #C89B5A",
"O. c #CA9A5A",
"+. c #CB9B5B",
"@. c #C99C59",
"#. c #C99C5B",
"$. c #CA9D5A",
"%. c #CB9E5B",
"&. c #CC9C5A",
"*. c #CD9D5B",
"=. c #C89A5C",
"-. c #C99B5D",
";. c #CA9D5C",
":. c #CB9E5D",
">. c #CA9C5E",
",. c #CB9D5F",
"<. c #CC9C5C",
"1. c #CC9F5C",
"2. c #CE9E5C",
"3. c #CF9F5D",
"4. c #CC9F5E",
"5. c #CE9E5E",
"6. c #CA9D5A",
"7. c #CCA057",
"8. c #CDA05F",
"9. c #CDA15C",
"0. c #D0A05E",
"q. c #D0A35F",
"w. c #CC9E60",
"e. c #CD9F61",
"r. c #CC9E61",
"t. c #CEA160",
"y. c #CFA261",
"u. c #CEA162",
"i. c #D1A161",
"p. c #D2A260",
"a. c #D0A362",
"s. c #D1A463",
"d. c #D5A563",
"f. c #D0A264",
"g. c #D1A463",
/* pixels */
"8 r r 8 r r r r r r y u u s y 3   O 5 h h s j s s s s s d g g f 7 2 u a c c c c c c c c c c c c a = ",
"r t u r u i u u i i s i u f y 4 X O y ) J j { G j j j j m G m h 4 4 k c K c M c c c c c N N N N c < ",
"8 i p i p d p g g s g s s g u 4 X 5 h r.{ { t.4.o.o.o.Y ` @.Y G 4 4 b K <.} R K } } T R R R ^ T c 4 ",
"9 i g p d g d g g s g s g j s r o y -.r.-.{ f.4.t.t.t.4.@.7.@.Y 7 7 M ..i.<.+.} <.+.+.+.} +.X.} M 4 ",
"r s g d d p p d s g g g h j a 5 O h =._ =.r.f.r.;.t.t.;.;.9.7.Y 7 7 S ..3.X.X.X.<.&.&.&.X.X.X.X.K 2 ",
"r d g d g g d p d d g s h h a 4 O h r._ =.r.r.>.;.;.;.;.@.;.@.Y 7 7 S ..2...*.*.X.&.X.X.X.X.X.X.S 2 ",
"r i d p d j d d g d j h h h a 0 4 H r._ r.r.r.r.t.t.9.;.;.;.@.Y 7 7 S ^ 2.....X.X.X.X./ X.X.X.X.S 2 ",
"r i p i d j d p g g g h h j h q < _ r._ f.r.=.r.t.t.t.;.;.9.7.~ 6 6 I ..2.U ....^ ^ ^ X./ X.X.X.c 2 ",
"r i u s j j d s d s s d h h a e < h =.) r.4.Y a.Y ;.t.;.@.Y ~ @.9 2 X.p.b ..I 2.o.7.` Y s.C ~ ~ k = ",
"r u d i i u i h i a u u a h a 0 < s =.) 4.` j ` m m G Y Y Y Z v w , c I n *.b b f C C f 7.m ~ v e ; ",
"u u y r a s a y u u u a a a y e O h j h G j d m j j d m v j v g 7 2 k N k c k b m v v i f f Z f k < ",
"> : ; : 1 1 > * O ; < ; < < < O o < 1 1 5 5 4 5 : 1 1 5 r r 3 > $ # 2 3 = < < 6 2 > 3 > 3 3 3 > = @ ",
"* > 5 3 : : 1 * ; < 4 < < < < < < 4 0 4 5 4 4 1 O ; 1 5 : 1 1 1 6 = = > 3 6 3 > * O > , 8 3 3 3 < $ ",
"i i 7.j s d h 5 q s j h s h F H J _ H F j j h s r y m m f f m j ^ l p k l ~ g g r > i v ~ f i v N k ",
"' g j j j t.j 4 q s [ j h J [ [ _ F H _ ` { ` j 1 y ` ;.Y Y ~ ` l &.( ~ ~ g g 7.t > f l ~ m f f N N ",
"7.j 8.t.j t.j r y h r.-.>.r.r.=.r.>.r.f.t.a.4.m 1 y Y 7. .@.@.@.l &.~ ^ 9.( ~ ~ t > g Z Y 7.7.7.K ..",
"7.o.:.o.y.:.G r y =.-.=.r.=.r.r.r.r.r.>.r.f.{ j 4 s ;.o.;.t.@.` 7.Z Z ~ ~ 7.~ ~ f > f 7.7.~ ~ ~ ~ x ",
"o.Y ' Y #.G m 1 5 ) =.=.r.=.=.r.r.r._ _ -.r.] j < a o.` o.;.@.~ 7.Z ~ ~ ~ ~ ~ z i * r f 7.B ~ ~ ~ ( ",
"7.` #.` :.` m 1 y H =.-.r.r.r.r.>.>.r.=.r.r.{ j < a ` ` ` 7.@.` 7.Z 7.7.7.~ 7.~ i > i f 7.~ 7.7.7.7.",
":.o.4.#.y.#.` 1 y ) -.=.f.r.r.r.r.r.r.r.r.r.{ j 1 a ;.` @.;.;.7.Y Y 7.7.7.z ~ ~ r * i 7.7.7.~ ~ ~ ~ ",
":.o.7.o.4.` ` r 4 ) =.=.r.-.r.r.>.>.r._ r.r.J h : a ;.` Y @.`  .~ ~ ~ 7.~ ~ ~ z r * f f 7.7.7.z x ~ ",
"o. .7.Y ' j m 1 5 H ) ) r.=.-.-.>._ _ _ r._ J h 1 i ;.` Y ~ Y ~ ~ Z f ~ z z ~ 7.f , f f z 7.7.7.z ~ ",
"m m Y B G h _ O 4 j j j ) j ] >.h F F h F H j h O h Y G v v v v f f f f f ~ f f i > r f f f f f g g ",
"i i d f j s j r O a s a h a s ] y y y a a h s y O y g f i i i i f i r r f f f i 8 $ 9 r i i i r p t ",
"O 1 O O 2 > O O O O 4 < : 1 O O o 1 < O > > 1 O O 1 : > ; O : > O O , * $ $ + $ O O O O * O * O = O ",
"r r r r r r r y r r r r r y r 1 O y y r y y y r 3 r r r r r r r > * r r r r r r t r r r r r r r 3 # ",
"i Y ~ P  . .` o.y.9.7.;.Y t.Y y r j Y m @.Y Y G m G G Z Y ` g g > , f z f f z f 7.z f ~ z ~ z v f 3 ",
"i Z P Z  .Y Y ~ Y m m v m Y j r 1 h Y ` @.~ @.@.;.o.~ Y ~ 7.~ g 3 r v v z z 7.f z z v z z z z l f > ",
"G 7.;.7.7.9.7.:.7.;.y.9.#.8.Y y O s o.o.7.Y ;.@.~ 7.@.~  .~ Y v , r f z z z 7.~ ~ z Z z z z ! l f , ",
"f Z Z G  . .Y ~ ` ;.9.@.Y o.m r r j o.o.;.@.9.9.@.9.q.9.7.9.7. .r > f z ~ ~ 7.~ 7.7.7.7.~ 7.7.! f , ",
"f ` ;.9.9.9.7.9.` ;.;.` Y 4.m r r G o.o.;.@.7.@.Y  . .~ ~ ` ~ B , r v 7.~ ~ ~ ~ v z Z v l z z z f > ",
"r B o.7.7. .~ :.7.;.7.` ;.s.m r 1 G ;.` @.Y @.@.~ ~ ~ Y @.7.~ z , r z ~ ~ z 7.z ~ ~ 7.~ z ~ ~ x t = ",
"i 7.~ Z o. .P ;.~ ` 9.` G y.#.r O :.t.7.:.Z P 7. . . .7.` ` ~ ~ r 3 z ! A 3.k A 3.3.l ^ 3.A D D f , ",
"i ~ ` ~ ;.7.P 7.9.:.y.:.` s.o.r r Y Y Y 7.o.Y  . . . .o.7.7.` ~ r , B ! A *.l ../ ^ c l A l l l k 6 ",
"i g Z Z Y g g Y ~ B Z Y Y o.m r O m f f o.P Z B P B v B Z Z g f r 3 f j b A k S l N b l A ^ D l k = ",
"B B B g d f g Y Z m g Z Y Y d y r s G s P f Y 7.B B Z f B Z B u 3 5 f ~ S S c k k k D b l A p u t , ",
"r , r > 2 r r 1 y i y i y u r 1 O r r r r r r r r > r r > r r r * * 3 6 6 6 3 3 w 6 i w 8 w 7 3 6 # ",
": O > , > O > O O > O O O 1 O O O O O r O O r O O O : : > O 2 O * * = : = = > > & + = & # = = = = + ",
"i i f v v B f > r r s y f m m d f i r f g f f r r r r f i f i i f p i p i i k c 9 = w i w k k A k 9 ",
"z B ~ z v  .f r r g Y f m m g m B Z m Y m m Y s > r f P G Y Y Z g g g ( A l ^ l w = p S b b k b k i ",
"7.7.7.Z ~ z v r r s  . .7. .~ ~ 7.Y ` ~ Z 7.' B > i Y ~ ` 7.Y Y x / ^ ^ U U x U k $ w n ^ K S b V V ",
"v v ~ Z 7.~ v O r g P P o.Y ` ~ 7.Z Z Z Z ` Y f O r Z ~ ~ ~ Y Y U ^ / x x U S b 9 = k n k k b b x V ",
"z z 7.~ 7.v z r 1 d G ~ ;.~ 7.` ~ ` ` ` ~ 7.' f r r ~ ~ 7.7.` 7./ / ../ ^ U U U 7 = p t w k ^ n S x ",
"7.7.7.7.7.f z O r f P Y 9.~ 7.o.7.Z ` 7.~ 7.~ s O r Y ` o.' ` 7./ / ^ ^ ^ U S x 6 @ 7 6 7 p U x x x ",
"z v z z ~ z z : r f z Y 7.Y ~ ~ G Y ` ` ~ ` m r > i ` ` ~ o.~ 7.x x / x ^ D D x 6 @ 2 7 7 w b n x x ",
"7.7.7.z 7.~ ~ r r Z Y ~ ;.~ @.@.7.` 7.` ~ 7.g r O f ` 7.o.7.7.o.X.X.&.&.....^ ^ 9 & w k w 9 p x x x ",
"7.z 7.v z z i r > f ~ ~ 7.~ ~ ~ ` 7.7.~ ~ 7.Z r O r Y 7.7.~ ~ o./ / X./ ..../ / w = k ..b t k b V k ",
"f f f f f f f * r f v Z Y v Z Z f m m g g Y m i O r m Z C C g m l S k A b b k k w = w k b b b k k k ",
"i f r i t t r r r r i f f f f t t f f f f f i r O r i i f i i g k l g g g i i d w * t p k u i k k k ",
"> > r * > * O O O r > > r r > $ O r > r r O > O X O > * 1 > > r 2 3 , , , > : 1 = . : 3 , = = , , = "
};
